<svg version="1.1" id="Layer_1" xmlns="http://www.w3.org/2000/svg" xmlns:xlink="http://www.w3.org/1999/xlink" x="0px" y="0px"
	 width="100%" viewBox="0 0 437 319" enable-background="new 0 0 437 319" xml:space="preserve">
<path fill="#000000" opacity="1.000000" stroke="none" 
	d="
M318.000000,320.000000 
	C212.000015,320.000000 106.500038,320.000000 1.000042,320.000000 
	C1.000028,213.666702 1.000028,107.333412 1.000014,1.000085 
	C146.666611,1.000057 292.333221,1.000057 437.999878,1.000028 
	C437.999908,107.333252 437.999908,213.666504 437.999939,319.999878 
	C398.166656,320.000000 358.333344,320.000000 318.000000,320.000000 
M61.506721,201.973618 
	C58.923347,210.581863 55.133316,218.887177 54.926476,228.286209 
	C58.645908,224.541077 62.711689,220.771698 64.154060,216.178528 
	C69.504662,199.139801 76.571259,182.965073 86.121750,167.915436 
	C89.952141,161.879517 94.428230,156.253357 99.126678,149.723175 
	C99.684128,151.442551 99.947235,151.876129 99.947807,152.310059 
	C99.976967,174.476059 100.038284,196.642471 99.886772,218.807404 
	C99.874985,220.532593 98.688927,222.544327 97.472359,223.909241 
	C94.333878,227.430450 90.872200,230.663620 87.039330,234.514496 
	C113.919441,234.514496 139.735001,234.514496 165.550568,234.514496 
	C165.882690,234.033493 166.214813,233.552505 166.546936,233.071503 
	C163.950653,230.800003 161.499939,228.327820 158.719040,226.310852 
	C155.658630,224.091187 156.744125,221.551086 158.136871,219.429672 
	C159.315186,217.634842 161.311523,215.427567 163.161240,215.206680 
	C168.091202,214.617966 173.150879,214.790924 178.129822,215.112534 
	C179.882401,215.225739 182.361206,216.214890 183.086502,217.566879 
	C184.554123,220.302628 186.519104,223.487488 183.013672,226.550888 
	C180.490860,228.755585 178.296906,231.336594 175.956253,233.749741 
	C176.179977,234.166351 176.403687,234.582947 176.627396,234.999557 
	C178.393570,234.999557 180.159760,234.999542 181.925934,234.999557 
	C193.925735,234.999664 205.926819,234.896454 217.924835,235.042847 
	C224.052460,235.117584 230.171524,235.731781 236.299988,235.937515 
	C244.611176,236.216522 252.769424,236.191483 260.600830,232.243866 
	C273.500336,225.741516 278.346710,205.553162 264.635132,195.299042 
	C260.689880,192.348602 256.008392,190.394989 251.725586,187.880203 
	C247.166290,185.203049 242.470612,182.685837 238.230881,179.560974 
	C235.150742,177.290771 232.179794,174.159714 235.750122,169.977386 
	C238.851852,166.343964 244.753693,165.950958 248.419907,169.033295 
	C250.453918,170.743393 252.208725,172.782089 254.134338,174.625717 
	C255.740509,176.163498 257.412170,177.632858 259.418091,179.464188 
	C263.578461,172.861008 267.317596,166.926453 271.409973,160.431183 
	C263.515564,159.204269 256.557373,157.623642 249.525833,157.162766 
	C241.629852,156.645248 233.619202,156.176697 226.058594,159.926331 
	C217.208984,164.315216 212.752304,173.505630 214.774277,182.981903 
	C216.302353,190.143509 221.075134,194.625916 226.701782,198.188385 
	C233.414124,202.438263 240.722519,205.743958 247.460312,209.958145 
	C249.503632,211.236160 251.933655,214.368423 251.664703,216.300323 
	C251.245117,219.314270 249.318512,222.993698 246.858612,224.637665 
	C243.401443,226.948090 238.870010,227.065781 235.315369,223.747284 
	C232.271469,220.905640 229.315613,217.959396 226.465256,214.923798 
	C223.982178,212.279343 222.500031,212.834595 220.977905,215.915756 
	C218.711166,220.504135 216.135269,224.939804 213.383301,230.006836 
	C211.100174,226.774460 208.499588,224.229675 207.250092,221.138733 
	C199.244171,201.334366 191.346893,181.480515 183.852722,161.478531 
	C181.837402,156.099594 178.043213,157.246750 174.203018,156.952332 
	C170.339523,156.656128 167.736389,157.533005 166.155441,161.588882 
	C158.517471,181.183701 150.738235,200.725708 142.737396,220.174667 
	C141.367889,223.503769 138.680664,226.290787 136.384232,229.646698 
	C132.269424,225.490341 127.940041,223.056671 127.958115,217.280945 
	C128.054596,186.448395 127.975151,155.615295 128.085220,124.782852 
	C128.090851,123.203758 128.834305,121.027039 130.001404,120.153290 
	C135.960114,115.692253 142.010605,111.308205 148.339859,107.400780 
	C154.433517,103.638809 160.906631,100.491478 167.213028,97.074097 
	C165.536102,96.165421 164.112762,96.022301 162.689102,96.019051 
	C161.362701,96.016029 160.009460,96.020432 158.713318,96.263283 
	C138.535553,100.043762 120.070534,107.818214 103.636940,120.191772 
	C96.351868,125.677017 89.528687,131.454178 86.094994,140.496490 
	C82.679314,149.491409 78.426888,158.168579 74.387833,167.333450 
	C73.369995,165.843323 72.528511,164.811905 71.901649,163.663361 
	C63.321537,147.942947 54.697365,132.245529 46.287052,116.434464 
	C44.912292,113.849968 43.388577,112.897102 40.532703,112.945290 
	C31.535416,113.097107 22.533934,113.000412 13.534077,112.999992 
	C10.319016,112.999840 7.103955,112.999969 3.888894,112.999969 
	C3.671326,113.512245 3.453758,114.024521 3.236190,114.536797 
	C6.174397,117.209541 9.002121,120.018456 12.081629,122.517044 
	C15.214741,125.059128 16.107603,128.104858 16.084457,132.095535 
	C15.924011,159.760834 15.940087,187.427780 16.069939,215.093399 
	C16.087629,218.862091 15.256208,221.749954 12.323160,224.285477 
	C8.999337,227.158844 6.063647,230.481186 2.004886,234.569611 
	C18.152374,234.569611 32.785404,234.569611 49.003876,234.569611 
	C44.992336,230.528931 42.052788,227.241928 38.763458,224.353226 
	C35.893185,221.832504 34.885468,219.020538 34.919159,215.202774 
	C35.092709,195.537964 34.993637,175.870773 35.013042,156.204437 
	C35.014347,154.879807 35.207546,153.555374 35.425426,150.779160 
	C44.213989,166.638535 52.282387,181.106903 60.219585,195.646881 
	C61.125217,197.305908 61.295708,199.366257 61.506721,201.973618 
M348.030914,220.497803 
	C354.874023,210.822144 357.145630,200.236221 355.076782,188.502197 
	C352.647369,174.722977 345.419891,164.070450 332.843231,158.677948 
	C305.050293,146.761215 276.954041,163.741989 275.082733,194.347748 
	C273.793701,215.430023 288.211487,233.743683 309.125397,236.655472 
	C324.430176,238.786301 338.160797,234.639938 348.030914,220.497803 
M371.393555,157.000381 
	C365.051849,157.000381 358.710144,157.000381 352.368439,157.000381 
	C351.938385,157.816498 351.508331,158.632614 351.078278,159.448730 
	C353.599884,161.346176 356.118134,163.248138 358.643951,165.139954 
	C362.123657,167.746185 363.186890,171.126663 363.099640,175.509094 
	C362.827820,189.162201 362.828522,202.827484 363.091614,216.480927 
	C363.185608,221.359100 362.015594,225.201370 358.224579,228.358978 
	C356.301422,229.960815 354.781342,232.046570 352.463013,234.589157 
	C364.455750,234.589157 375.253815,234.589157 386.261230,234.589157 
	C382.668060,230.193832 377.997314,226.612305 376.428589,221.980209 
	C374.756805,217.043762 376.018341,211.113724 376.000488,205.617477 
	C375.997223,204.618088 376.000000,203.618668 376.000000,202.619263 
	C376.000000,197.071747 376.000000,191.524231 376.000000,184.632950 
	C392.573730,204.712494 408.165619,223.602524 423.757507,242.492554 
	C424.171692,242.319595 424.585846,242.146652 425.000000,241.973694 
	C425.000000,240.223450 425.000000,238.473221 425.000000,236.722977 
	C425.000000,216.401749 425.135284,196.078979 424.904449,175.760376 
	C424.847046,170.705200 425.997192,166.723740 429.944672,163.442825 
	C431.540283,162.116653 432.552765,160.088913 434.553558,157.413849 
	C422.505463,157.413849 412.021393,157.413849 400.914001,157.413849 
	C401.671997,158.648026 401.918274,159.542389 402.500458,159.923172 
	C411.848297,166.037155 413.259918,175.084396 412.028046,185.182999 
	C411.827850,186.824265 412.000000,188.510925 412.000000,190.176605 
	C412.000000,192.136963 412.000000,194.097321 412.000000,196.057678 
	C401.984955,184.963959 392.837585,174.071152 384.412598,162.645645 
	C381.109222,158.165726 377.629517,156.211441 371.393555,157.000381 
M169.419205,30.936649 
	C147.001190,40.923195 126.758858,53.643475 113.991341,75.574081 
	C111.252129,80.279175 108.959457,85.244247 106.461090,90.089554 
	C107.030746,90.472847 107.600410,90.856148 108.170067,91.239449 
	C109.417404,89.688698 110.537476,88.011604 111.931946,86.606926 
	C124.811523,73.633125 139.253143,62.609203 155.936920,55.188461 
	C169.787918,49.027710 184.312790,44.388943 198.490173,38.948353 
	C200.908981,38.020138 203.993210,37.018646 205.205307,35.075142 
	C209.747360,27.792379 213.704788,20.138903 217.723587,12.540932 
	C218.550537,10.977489 218.698212,9.054751 219.124283,7.429941 
	C202.447098,15.254753 186.239609,22.859190 169.419205,30.936649 
M120.380760,99.867630 
	C135.870667,90.210693 152.571487,83.423393 170.503265,80.224823 
	C178.596268,78.781235 184.705811,76.330650 187.306229,67.707901 
	C188.543243,63.606079 191.344406,59.975967 193.554718,55.915981 
	C181.940094,53.357620 137.889664,72.515244 115.666870,90.481133 
	C107.185860,97.337563 100.492775,106.544617 95.547089,117.757927 
	C104.233841,111.419868 111.967522,105.777191 120.380760,99.867630 
M379.529602,123.999657 
	C376.186829,124.391136 370.864990,122.172012 372.177826,128.945633 
	C372.501495,130.615585 374.770905,131.908432 376.737335,134.005402 
	C377.099182,138.270782 376.001587,139.242264 371.051483,137.868423 
	C365.774994,136.403976 362.507141,131.695618 363.027954,126.308212 
	C363.486420,121.566292 367.903656,117.222031 373.157440,117.085487 
	C377.284210,116.978233 381.431549,117.663033 385.786926,118.013451 
	C385.853668,117.246155 385.722992,116.184639 386.060120,115.301796 
	C387.850861,110.612595 385.799744,108.787743 381.319244,108.917183 
	C375.778748,109.077240 370.151245,108.872307 364.728302,109.800552 
	C357.591888,111.022072 353.450226,116.225975 352.294556,123.044647 
	C351.100281,130.091125 351.889923,136.954712 358.305634,141.893814 
	C366.824829,148.452316 376.307281,147.263214 385.807892,145.367447 
	C386.754791,145.178482 387.760620,142.881760 387.890808,141.484268 
	C388.198486,138.180862 388.018890,134.829666 387.993469,131.498108 
	C387.929840,123.158028 388.790253,124.085144 379.529602,123.999657 
M268.269745,109.383942 
	C266.087738,110.850845 263.617310,112.025360 261.777985,113.839661 
	C256.335754,119.207779 256.169586,133.287964 260.617706,139.935654 
	C265.065552,146.582932 276.525665,148.743423 285.025574,145.010498 
	C292.733215,141.625504 295.295074,134.010071 294.829987,125.999535 
	C294.258484,116.155678 289.882568,110.634384 281.676941,109.105431 
	C277.604370,108.346596 273.254395,109.076279 268.269745,109.383942 
M185.535965,116.997742 
	C189.850937,117.285172 194.165894,117.572601 198.943893,117.890884 
	C198.943893,116.260414 199.253891,114.066032 198.821335,112.029366 
	C198.582520,110.904999 197.104385,109.208427 196.174225,109.201462 
	C189.987000,109.155106 183.549057,108.482292 177.659576,109.922615 
	C165.597549,112.872467 160.662018,127.123421 167.236847,137.796738 
	C171.822632,145.241135 179.477478,147.572037 186.986450,146.718643 
	C201.403076,145.080261 200.005280,148.631989 200.000748,134.054581 
	C199.997604,123.964409 200.000137,123.964401 190.064056,123.999924 
	C183.436081,124.023621 183.270401,124.245041 184.638748,131.449646 
	C186.280869,131.842163 187.989182,132.250519 190.703033,132.899231 
	C189.689896,134.871201 189.266418,137.265350 188.073608,137.744553 
	C182.990463,139.786697 176.668549,135.395920 176.031143,129.780090 
	C175.202789,122.481781 176.991791,119.868217 185.535965,116.997742 
M325.285461,109.000114 
	C321.123352,109.002327 316.957916,109.105858 312.800262,108.971008 
	C310.044952,108.881638 308.938354,109.894356 308.968048,112.721649 
	C309.071136,122.543182 309.128571,132.368744 308.944702,142.187943 
	C308.874329,145.948502 310.952698,146.130676 313.702606,146.013611 
	C316.304413,145.902847 319.296661,146.648560 319.031464,142.284546 
	C318.833252,139.022461 318.992371,135.738647 318.992371,132.499588 
	C325.299591,131.305511 325.723114,135.768951 326.907227,139.209045 
	C329.463440,146.635406 331.844391,147.765533 340.055939,144.824982 
	C339.433380,142.992828 338.736755,141.166962 338.191772,139.296906 
	C336.563446,133.709106 332.740448,129.059891 337.547119,122.167549 
	C341.728119,116.172447 336.639160,108.746567 325.285461,109.000114 
M415.981781,122.909370 
	C415.389923,121.438164 414.577820,119.996262 414.375244,118.473282 
	C414.329803,118.131584 416.392456,117.158150 417.526733,117.079033 
	C420.511810,116.870834 423.526733,116.865753 426.517120,117.022041 
	C429.605469,117.183449 430.020844,115.483650 430.037598,112.969048 
	C430.054749,110.387466 429.478821,108.897301 426.455658,108.968079 
	C420.294434,109.112328 414.124115,109.126198 407.964081,108.955902 
	C404.870453,108.870392 403.920990,110.092865 403.959015,113.062973 
	C404.082611,122.724968 404.055328,132.389954 403.973022,142.052811 
	C403.950745,144.664490 404.595367,146.091965 407.579254,146.030838 
	C414.240967,145.894394 420.909332,145.889999 427.570923,146.027832 
	C430.702942,146.092651 430.993347,144.378098 431.036926,141.916412 
	C431.083710,139.273285 430.364136,137.862549 427.399780,137.971237 
	C423.130432,138.127762 418.851074,138.011215 414.724396,138.011215 
	C413.495056,131.197739 413.621643,131.037399 419.601562,131.001709 
	C421.267670,130.991760 422.944153,130.879089 424.597717,131.022766 
	C427.684814,131.290970 429.072235,130.321503 429.094147,126.889862 
	C429.117767,123.188995 427.202545,122.855438 424.376282,122.977707 
	C421.882202,123.085602 419.379089,122.984367 415.981781,122.909370 
M233.655243,116.999863 
	C236.925247,116.999863 240.195251,116.999863 243.595886,116.999863 
	C243.595886,113.990326 243.595886,111.773170 243.595886,109.029694 
	C235.755356,109.029694 228.292023,108.914764 220.841354,109.169571 
	C219.867966,109.202858 218.166321,111.119247 218.144348,112.190941 
	C217.936172,122.347519 217.952682,132.511093 218.113235,142.669357 
	C218.130524,143.762360 219.445648,145.753616 220.202377,145.774887 
	C228.293335,146.002213 236.393097,145.916245 244.580933,145.916245 
	C244.580933,142.965424 244.580933,140.748260 244.580933,137.868027 
	C238.956406,137.868027 233.720825,137.868027 228.422577,137.868027 
	C228.422577,135.303040 228.422577,133.415558 228.422577,130.859161 
	C233.375610,130.859161 237.941879,130.859161 242.577560,130.859161 
	C242.577560,127.951950 242.577560,125.734589 242.577560,122.862785 
	C237.607178,122.862785 233.037277,122.862785 228.267731,122.862785 
	C228.267731,120.744659 228.267731,119.291901 228.267731,117.407539 
	C229.836731,117.264183 231.277557,117.132538 233.655243,116.999863 
M72.473808,266.958160 
	C71.130875,264.291687 70.335266,261.025543 68.274940,259.145142 
	C66.572212,257.591125 63.400036,257.455627 60.825180,257.159637 
	C59.999626,257.064728 58.220963,258.444977 58.203568,259.181610 
	C58.012516,267.270966 58.083668,275.366547 58.083668,283.605743 
	C60.651821,283.605743 62.537701,283.605743 65.058014,283.605743 
	C65.058014,278.934113 65.058014,274.608276 65.058014,268.820099 
	C68.036781,274.095856 69.767784,278.338806 72.587296,281.656799 
	C73.988594,283.305817 77.354660,283.479858 79.900612,283.855865 
	C80.789955,283.987213 82.741150,282.744019 82.756737,282.093811 
	C82.954178,273.859375 82.886604,265.618561 82.886604,257.502808 
	C74.998444,256.518280 74.931297,256.519287 75.034363,263.369781 
	C75.076401,266.163635 75.480286,268.952087 75.719536,271.742981 
	C75.507347,271.795868 75.295166,271.848724 75.082977,271.901611 
	C74.337006,270.462158 73.591034,269.022736 72.473808,266.958160 
M241.999542,272.480072 
	C241.999603,274.313385 241.994400,276.146698 242.000641,277.979980 
	C242.023010,284.558472 242.360123,284.803589 249.627914,283.267456 
	C249.880890,280.349304 250.143127,277.324371 250.405365,274.299408 
	C250.883865,274.143890 251.362350,273.988373 251.840851,273.832855 
	C252.877670,275.652618 254.147964,277.380524 254.906769,279.309631 
	C257.035675,284.721924 257.620209,285.042725 264.182648,282.858887 
	C263.536072,281.042999 262.745270,279.273712 262.282104,277.422455 
	C261.458527,274.130585 259.204651,271.229248 262.447296,267.403748 
	C265.133606,264.234589 262.630676,258.968109 258.351898,258.113983 
	C253.856308,257.216583 249.150772,257.184174 244.540222,257.217804 
	C243.690079,257.224030 242.237869,259.290436 242.129333,260.501434 
	C241.803345,264.139191 242.004211,267.824219 241.999542,272.480072 
M23.483833,276.811096 
	C19.114840,278.537384 17.217970,277.495789 17.044422,273.005890 
	C16.877741,268.693604 16.914528,264.369171 17.001459,260.052887 
	C17.060869,257.103027 15.120816,256.586548 13.084685,257.126404 
	C11.588171,257.523193 9.291766,258.884125 9.209721,259.957428 
	C8.818584,265.074066 8.761664,270.262970 9.165205,275.380493 
	C9.571930,280.538422 13.052399,283.650543 17.807417,283.987305 
	C26.809919,284.624847 30.263781,283.165192 31.934174,277.366547 
	C32.740288,274.568176 33.508694,271.294617 32.800083,268.634155 
	C31.764074,264.744476 37.077301,257.495148 29.107092,257.325470 
	C20.703009,257.146484 26.624186,264.651733 25.108816,268.396606 
	C24.158514,270.745056 24.274061,273.524780 23.483833,276.811096 
M204.419754,273.834229 
	C207.780823,273.366028 211.141891,272.897858 214.439743,272.438507 
	C215.879852,268.301910 214.495026,266.599426 210.358276,266.985229 
	C209.206329,267.092590 207.943283,267.255554 206.897751,266.901367 
	C205.883392,266.557739 205.082977,265.582489 204.188599,264.884644 
	C205.160233,264.262756 206.065811,263.304077 207.118896,263.097534 
	C208.721100,262.783295 210.558563,263.371826 212.044006,262.853912 
	C213.210541,262.447205 214.763535,260.925110 214.735596,259.938416 
	C214.707352,258.941132 213.001541,257.235840 211.932617,257.156219 
	C207.637741,256.836273 203.290039,256.833649 198.996628,257.164703 
	C197.939301,257.246216 196.196167,258.998566 196.158554,260.033356 
	C195.905212,267.000763 195.927658,273.984772 196.135574,280.955170 
	C196.165909,281.972290 197.614304,283.756287 198.484436,283.805389 
	C203.451401,284.085754 208.449371,284.087799 213.417618,283.823303 
	C214.307846,283.775940 215.919006,281.871490 215.763000,281.123688 
	C215.519516,279.956390 214.206680,278.464722 213.064651,278.156555 
	C211.202957,277.654175 208.992538,278.394592 207.163116,277.839661 
	C205.946930,277.470734 205.137894,275.759521 204.419754,273.834229 
M145.375061,258.267426 
	C147.942963,265.783234 150.393799,273.343018 153.186493,280.774323 
	C153.690140,282.114563 155.558716,283.736542 156.869141,283.802734 
	C159.144409,283.917694 163.007553,283.555023 163.534134,282.285187 
	C166.844101,274.303101 169.417084,266.015411 172.274094,257.711426 
	C166.707458,256.226074 163.367355,256.598877 162.551788,262.554932 
	C162.048508,266.230286 160.359879,269.743317 158.845932,274.437683 
	C158.118820,272.476074 157.863388,271.869507 157.667557,271.244263 
	C156.829163,268.567291 155.943573,265.902771 155.193756,263.200806 
	C153.262329,256.241089 153.287476,256.234100 145.375061,258.267426 
M306.150330,270.767761 
	C302.609070,268.703979 299.067810,266.640198 295.526520,264.576416 
	C295.597412,264.253113 295.668304,263.929840 295.739197,263.606567 
	C298.872955,263.606567 302.006714,263.606567 306.810028,263.606567 
	C305.532990,261.075958 304.852020,257.718292 303.478699,257.406036 
	C300.207825,256.662384 296.516632,256.904633 293.168762,257.592834 
	C289.436798,258.360016 287.326630,261.356781 287.102600,265.150696 
	C286.864563,269.181641 289.348053,271.513214 292.918335,272.876923 
	C294.943115,273.650330 296.944855,274.484039 298.956970,275.290588 
	C298.867157,275.864380 298.777344,276.438171 298.687561,277.011963 
	C295.384186,277.011963 292.080841,277.011963 287.170288,277.011963 
	C288.381531,279.866455 288.708405,282.987976 290.132111,283.613647 
	C300.002655,287.951294 307.849579,281.981873 306.150330,270.767761 
M404.397095,258.100769 
	C404.436615,258.262268 404.449127,258.436707 404.519470,258.583435 
	C408.159698,266.175354 415.256989,272.308411 414.302307,281.934601 
	C414.250458,282.457581 417.345673,283.889191 418.891205,283.772797 
	C419.995758,283.689636 421.903778,281.650238 421.825012,280.606628 
	C421.426239,275.322266 423.164612,270.926453 426.046448,266.664764 
	C427.930786,263.878174 429.299164,260.742676 430.769989,258.003113 
	C422.173279,253.684402 420.785553,260.986633 417.349365,266.694885 
	C415.372620,259.253204 412.069550,255.027237 404.397095,258.100769 
M380.819153,263.438751 
	C381.793945,263.272705 383.008301,263.407776 383.686157,262.868500 
	C384.648041,262.103271 385.838043,260.800812 385.772858,259.803528 
	C385.709473,258.832825 384.218781,257.200409 383.301697,257.163086 
	C377.391785,256.922607 371.467285,257.040070 363.951691,257.040070 
	C365.410248,259.780334 366.337250,262.743774 367.065216,262.695709 
	C372.741882,262.320587 372.049072,266.047821 372.008484,269.534851 
	C371.967896,273.018982 372.138428,276.510864 371.963348,279.986603 
	C371.812164,282.988037 372.929230,284.081177 375.972076,284.068481 
	C378.949158,284.056030 380.106354,283.095947 380.048340,280.039581 
	C379.947723,274.741852 380.190033,269.437622 380.819153,263.438751 
M110.999222,272.480103 
	C111.003372,275.144470 111.134674,277.816376 110.978180,280.471252 
	C110.798965,283.511475 112.417877,284.047424 114.981796,284.037231 
	C117.508652,284.027161 119.094254,283.574554 119.029022,280.504578 
	C118.887550,273.846619 118.887383,267.181458 119.030151,260.523560 
	C119.095428,257.479401 117.567131,256.958618 115.010376,256.964050 
	C112.476387,256.969421 110.840126,257.434662 110.973953,260.501923 
	C111.133484,264.158295 111.003677,267.827301 110.999222,272.480103 
M332.932587,257.392517 
	C332.623352,264.917633 332.373169,272.445892 331.975464,279.966339 
	C331.819061,282.923920 332.863770,284.095459 335.934235,284.066956 
	C338.848358,284.039856 340.136841,283.198517 340.042664,280.097412 
	C339.871979,274.475525 339.672729,268.820007 340.096161,263.224762 
	C340.477020,258.192261 338.907837,256.045563 332.932587,257.392517 
z"/>
<path fill="#006940" opacity="1.000000" stroke="none" 
	d="
M61.656895,201.607056 
	C61.295708,199.366257 61.125217,197.305908 60.219585,195.646881 
	C52.282387,181.106903 44.213989,166.638535 35.425426,150.779160 
	C35.207546,153.555374 35.014347,154.879807 35.013042,156.204437 
	C34.993637,175.870773 35.092709,195.537964 34.919159,215.202774 
	C34.885468,219.020538 35.893185,221.832504 38.763458,224.353226 
	C42.052788,227.241928 44.992336,230.528931 49.003876,234.569611 
	C32.785404,234.569611 18.152374,234.569611 2.004886,234.569611 
	C6.063647,230.481186 8.999337,227.158844 12.323160,224.285477 
	C15.256208,221.749954 16.087629,218.862091 16.069939,215.093399 
	C15.940087,187.427780 15.924011,159.760834 16.084457,132.095535 
	C16.107603,128.104858 15.214741,125.059128 12.081629,122.517044 
	C9.002121,120.018456 6.174397,117.209541 3.236190,114.536797 
	C3.453758,114.024521 3.671326,113.512245 3.888894,112.999969 
	C7.103955,112.999969 10.319016,112.999840 13.534077,112.999992 
	C22.533934,113.000412 31.535416,113.097107 40.532703,112.945290 
	C43.388577,112.897102 44.912292,113.849968 46.287052,116.434464 
	C54.697365,132.245529 63.321537,147.942947 71.901649,163.663361 
	C72.528511,164.811905 73.369995,165.843323 74.387833,167.333450 
	C78.426888,158.168579 82.679314,149.491409 86.094994,140.496490 
	C89.528687,131.454178 96.351868,125.677017 103.636940,120.191772 
	C120.070534,107.818214 138.535553,100.043762 158.713318,96.263283 
	C160.009460,96.020432 161.362701,96.016029 162.689102,96.019051 
	C164.112762,96.022301 165.536102,96.165421 167.213028,97.074097 
	C160.906631,100.491478 154.433517,103.638809 148.339859,107.400780 
	C142.010605,111.308205 135.960114,115.692253 130.001404,120.153290 
	C128.834305,121.027039 128.090851,123.203758 128.085220,124.782852 
	C127.975151,155.615295 128.054596,186.448395 127.958115,217.280945 
	C127.940041,223.056671 132.269424,225.490341 136.384232,229.646698 
	C138.680664,226.290787 141.367889,223.503769 142.737396,220.174667 
	C150.738235,200.725708 158.517471,181.183701 166.155441,161.588882 
	C167.736389,157.533005 170.339523,156.656128 174.203018,156.952332 
	C178.043213,157.246750 181.837402,156.099594 183.852722,161.478531 
	C191.346893,181.480515 199.244171,201.334366 207.250092,221.138733 
	C208.499588,224.229675 211.100174,226.774460 213.383301,230.006836 
	C216.135269,224.939804 218.711166,220.504135 220.977905,215.915756 
	C222.500031,212.834595 223.982178,212.279343 226.465256,214.923798 
	C229.315613,217.959396 232.271469,220.905640 235.315369,223.747284 
	C238.870010,227.065781 243.401443,226.948090 246.858612,224.637665 
	C249.318512,222.993698 251.245117,219.314270 251.664703,216.300323 
	C251.933655,214.368423 249.503632,211.236160 247.460312,209.958145 
	C240.722519,205.743958 233.414124,202.438263 226.701782,198.188385 
	C221.075134,194.625916 216.302353,190.143509 214.774277,182.981903 
	C212.752304,173.505630 217.208984,164.315216 226.058594,159.926331 
	C233.619202,156.176697 241.629852,156.645248 249.525833,157.162766 
	C256.557373,157.623642 263.515564,159.204269 271.409973,160.431183 
	C267.317596,166.926453 263.578461,172.861008 259.418091,179.464188 
	C257.412170,177.632858 255.740509,176.163498 254.134338,174.625717 
	C252.208725,172.782089 250.453918,170.743393 248.419907,169.033295 
	C244.753693,165.950958 238.851852,166.343964 235.750122,169.977386 
	C232.179794,174.159714 235.150742,177.290771 238.230881,179.560974 
	C242.470612,182.685837 247.166290,185.203049 251.725586,187.880203 
	C256.008392,190.394989 260.689880,192.348602 264.635132,195.299042 
	C278.346710,205.553162 273.500336,225.741516 260.600830,232.243866 
	C252.769424,236.191483 244.611176,236.216522 236.299988,235.937515 
	C230.171524,235.731781 224.052460,235.117584 217.924835,235.042847 
	C205.926819,234.896454 193.925735,234.999664 181.925934,234.999557 
	C180.159760,234.999542 178.393570,234.999557 176.627396,234.999557 
	C176.403687,234.582947 176.179977,234.166351 175.956253,233.749741 
	C178.296906,231.336594 180.490860,228.755585 183.013672,226.550888 
	C186.519104,223.487488 184.554123,220.302628 183.086502,217.566879 
	C182.361206,216.214890 179.882401,215.225739 178.129822,215.112534 
	C173.150879,214.790924 168.091202,214.617966 163.161240,215.206680 
	C161.311523,215.427567 159.315186,217.634842 158.136871,219.429672 
	C156.744125,221.551086 155.658630,224.091187 158.719040,226.310852 
	C161.499939,228.327820 163.950653,230.800003 166.546936,233.071503 
	C166.214813,233.552505 165.882690,234.033493 165.550568,234.514496 
	C139.735001,234.514496 113.919441,234.514496 87.039330,234.514496 
	C90.872200,230.663620 94.333878,227.430450 97.472359,223.909241 
	C98.688927,222.544327 99.874985,220.532593 99.886772,218.807404 
	C100.038284,196.642471 99.976967,174.476059 99.947807,152.310059 
	C99.947235,151.876129 99.684128,151.442551 99.126678,149.723175 
	C94.428230,156.253357 89.952141,161.879517 86.121750,167.915436 
	C76.571259,182.965073 69.504662,199.139801 64.154060,216.178528 
	C62.711689,220.771698 58.645908,224.541077 54.926476,228.286209 
	C55.133316,218.887177 58.923347,210.581863 61.656895,201.607056 
M171.460693,187.799606 
	C169.215027,192.543213 166.969360,197.286819 164.472031,202.562012 
	C169.283676,202.562012 172.933929,202.562012 176.638092,202.562012 
	C176.678711,201.646164 176.854843,201.106140 176.697433,200.693268 
	C175.119583,196.554810 173.486923,192.437256 171.460693,187.799606 
z"/>
<path fill="#006940" opacity="1.000000" stroke="none" 
	d="
M347.795044,220.771301 
	C338.160797,234.639938 324.430176,238.786301 309.125397,236.655472 
	C288.211487,233.743683 273.793701,215.430023 275.082733,194.347748 
	C276.954041,163.741989 305.050293,146.761215 332.843231,158.677948 
	C345.419891,164.070450 352.647369,174.722977 355.076782,188.502197 
	C357.145630,200.236221 354.874023,210.822144 347.795044,220.771301 
M330.591125,186.194092 
	C329.654572,182.689438 328.950623,179.101288 327.729218,175.698868 
	C325.690918,170.020737 320.650574,166.833771 314.642059,167.001755 
	C309.274292,167.151825 304.123688,171.285660 302.164093,178.151733 
	C298.780396,190.007629 298.712067,202.086746 302.265289,213.893295 
	C303.288391,217.292847 305.694153,221.010773 308.565369,222.978912 
	C316.494598,228.414139 326.929810,223.532639 328.793091,213.170898 
	C330.330994,204.618652 330.226471,195.771072 330.591125,186.194092 
z"/>
<path fill="#006940" opacity="1.000000" stroke="none" 
	d="
M371.872284,157.000397 
	C377.629517,156.211441 381.109222,158.165726 384.412598,162.645645 
	C392.837585,174.071152 401.984955,184.963959 412.000000,196.057678 
	C412.000000,194.097321 412.000000,192.136963 412.000000,190.176605 
	C412.000000,188.510925 411.827850,186.824265 412.028046,185.182999 
	C413.259918,175.084396 411.848297,166.037155 402.500458,159.923172 
	C401.918274,159.542389 401.671997,158.648026 400.914001,157.413849 
	C412.021393,157.413849 422.505463,157.413849 434.553558,157.413849 
	C432.552765,160.088913 431.540283,162.116653 429.944672,163.442825 
	C425.997192,166.723740 424.847046,170.705200 424.904449,175.760376 
	C425.135284,196.078979 425.000000,216.401749 425.000000,236.722977 
	C425.000000,238.473221 425.000000,240.223450 425.000000,241.973694 
	C424.585846,242.146652 424.171692,242.319595 423.757507,242.492554 
	C408.165619,223.602524 392.573730,204.712494 376.000000,184.632950 
	C376.000000,191.524231 376.000000,197.071747 376.000000,202.619263 
	C376.000000,203.618668 375.997223,204.618088 376.000488,205.617477 
	C376.018341,211.113724 374.756805,217.043762 376.428589,221.980209 
	C377.997314,226.612305 382.668060,230.193832 386.261230,234.589157 
	C375.253815,234.589157 364.455750,234.589157 352.463013,234.589157 
	C354.781342,232.046570 356.301422,229.960815 358.224579,228.358978 
	C362.015594,225.201370 363.185608,221.359100 363.091614,216.480927 
	C362.828522,202.827484 362.827820,189.162201 363.099640,175.509094 
	C363.186890,171.126663 362.123657,167.746185 358.643951,165.139954 
	C356.118134,163.248138 353.599884,161.346176 351.078278,159.448730 
	C351.508331,158.632614 351.938385,157.816498 352.368439,157.000381 
	C358.710144,157.000381 365.051849,157.000381 371.872284,157.000397 
z"/>
<path fill="#FEBE10" opacity="1.000000" stroke="none" 
	d="
M169.725647,30.700138 
	C186.239609,22.859190 202.447098,15.254753 219.124283,7.429941 
	C218.698212,9.054751 218.550537,10.977489 217.723587,12.540932 
	C213.704788,20.138903 209.747360,27.792379 205.205307,35.075142 
	C203.993210,37.018646 200.908981,38.020138 198.490173,38.948353 
	C184.312790,44.388943 169.787918,49.027710 155.936920,55.188461 
	C139.253143,62.609203 124.811523,73.633125 111.931946,86.606926 
	C110.537476,88.011604 109.417404,89.688698 108.170067,91.239449 
	C107.600410,90.856148 107.030746,90.472847 106.461090,90.089554 
	C108.959457,85.244247 111.252129,80.279175 113.991341,75.574081 
	C126.758858,53.643475 147.001190,40.923195 169.725647,30.700138 
z"/>
<path fill="#006940" opacity="1.000000" stroke="none" 
	d="
M120.040985,100.001068 
	C111.967522,105.777191 104.233841,111.419868 95.547089,117.757927 
	C100.492775,106.544617 107.185860,97.337563 115.666870,90.481133 
	C137.889664,72.515244 181.940094,53.357620 193.554718,55.915981 
	C191.344406,59.975967 188.543243,63.606079 187.306229,67.707901 
	C184.705811,76.330650 178.596268,78.781235 170.503265,80.224823 
	C152.571487,83.423393 135.870667,90.210693 120.040985,100.001068 
z"/>
<path fill="#006940" opacity="1.000000" stroke="none" 
	d="
M380.002441,123.999657 
	C388.790253,124.085144 387.929840,123.158028 387.993469,131.498108 
	C388.018890,134.829666 388.198486,138.180862 387.890808,141.484268 
	C387.760620,142.881760 386.754791,145.178482 385.807892,145.367447 
	C376.307281,147.263214 366.824829,148.452316 358.305634,141.893814 
	C351.889923,136.954712 351.100281,130.091125 352.294556,123.044647 
	C353.450226,116.225975 357.591888,111.022072 364.728302,109.800552 
	C370.151245,108.872307 375.778748,109.077240 381.319244,108.917183 
	C385.799744,108.787743 387.850861,110.612595 386.060120,115.301796 
	C385.722992,116.184639 385.853668,117.246155 385.786926,118.013451 
	C381.431549,117.663033 377.284210,116.978233 373.157440,117.085487 
	C367.903656,117.222031 363.486420,121.566292 363.027954,126.308212 
	C362.507141,131.695618 365.774994,136.403976 371.051483,137.868423 
	C376.001587,139.242264 377.099182,138.270782 376.737335,134.005402 
	C374.770905,131.908432 372.501495,130.615585 372.177826,128.945633 
	C370.864990,122.172012 376.186829,124.391136 380.002441,123.999657 
z"/>
<path fill="#006940" opacity="1.000000" stroke="none" 
	d="
M268.649841,109.258247 
	C273.254395,109.076279 277.604370,108.346596 281.676941,109.105431 
	C289.882568,110.634384 294.258484,116.155678 294.829987,125.999535 
	C295.295074,134.010071 292.733215,141.625504 285.025574,145.010498 
	C276.525665,148.743423 265.065552,146.582932 260.617706,139.935654 
	C256.169586,133.287964 256.335754,119.207779 261.777985,113.839661 
	C263.617310,112.025360 266.087738,110.850845 268.649841,109.258247 
M280.901550,118.459152 
	C275.606689,115.645500 270.278320,116.953224 269.372009,121.975220 
	C268.684723,125.783676 269.047577,130.115784 270.244415,133.791107 
	C270.855469,135.667526 274.191833,137.376877 276.539154,137.793365 
	C279.807007,138.373154 281.881714,136.027054 282.917542,132.818283 
	C284.481689,127.972862 283.895538,123.437523 280.901550,118.459152 
z"/>
<path fill="#006940" opacity="1.000000" stroke="none" 
	d="
M185.141998,117.021667 
	C176.991791,119.868217 175.202789,122.481781 176.031143,129.780090 
	C176.668549,135.395920 182.990463,139.786697 188.073608,137.744553 
	C189.266418,137.265350 189.689896,134.871201 190.703033,132.899231 
	C187.989182,132.250519 186.280869,131.842163 184.638748,131.449646 
	C183.270401,124.245041 183.436081,124.023621 190.064056,123.999924 
	C200.000137,123.964401 199.997604,123.964409 200.000748,134.054581 
	C200.005280,148.631989 201.403076,145.080261 186.986450,146.718643 
	C179.477478,147.572037 171.822632,145.241135 167.236847,137.796738 
	C160.662018,127.123421 165.597549,112.872467 177.659576,109.922615 
	C183.549057,108.482292 189.987000,109.155106 196.174225,109.201462 
	C197.104385,109.208427 198.582520,110.904999 198.821335,112.029366 
	C199.253891,114.066032 198.943893,116.260414 198.943893,117.890884 
	C194.165894,117.572601 189.850937,117.285172 185.141998,117.021667 
z"/>
<path fill="#006940" opacity="1.000000" stroke="none" 
	d="
M325.751862,109.000381 
	C336.639160,108.746567 341.728119,116.172447 337.547119,122.167549 
	C332.740448,129.059891 336.563446,133.709106 338.191772,139.296906 
	C338.736755,141.166962 339.433380,142.992828 340.055939,144.824982 
	C331.844391,147.765533 329.463440,146.635406 326.907227,139.209045 
	C325.723114,135.768951 325.299591,131.305511 318.992371,132.499588 
	C318.992371,135.738647 318.833252,139.022461 319.031464,142.284546 
	C319.296661,146.648560 316.304413,145.902847 313.702606,146.013611 
	C310.952698,146.130676 308.874329,145.948502 308.944702,142.187943 
	C309.128571,132.368744 309.071136,122.543182 308.968048,112.721649 
	C308.938354,109.894356 310.044952,108.881638 312.800262,108.971008 
	C316.957916,109.105858 321.123352,109.002327 325.751862,109.000381 
M325.624054,117.385902 
	C323.564667,117.385902 321.505280,117.385902 319.406982,117.385902 
	C319.406982,119.751892 319.406982,121.644814 319.406982,124.857124 
	C322.612854,123.610992 325.090759,122.754875 327.395905,121.564308 
	C327.597229,121.460327 326.663116,119.158043 325.624054,117.385902 
z"/>
<path fill="#006940" opacity="1.000000" stroke="none" 
	d="
M416.430847,122.942421 
	C419.379089,122.984367 421.882202,123.085602 424.376282,122.977707 
	C427.202545,122.855438 429.117767,123.188995 429.094147,126.889862 
	C429.072235,130.321503 427.684814,131.290970 424.597717,131.022766 
	C422.944153,130.879089 421.267670,130.991760 419.601562,131.001709 
	C413.621643,131.037399 413.495056,131.197739 414.724396,138.011215 
	C418.851074,138.011215 423.130432,138.127762 427.399780,137.971237 
	C430.364136,137.862549 431.083710,139.273285 431.036926,141.916412 
	C430.993347,144.378098 430.702942,146.092651 427.570923,146.027832 
	C420.909332,145.889999 414.240967,145.894394 407.579254,146.030838 
	C404.595367,146.091965 403.950745,144.664490 403.973022,142.052811 
	C404.055328,132.389954 404.082611,122.724968 403.959015,113.062973 
	C403.920990,110.092865 404.870453,108.870392 407.964081,108.955902 
	C414.124115,109.126198 420.294434,109.112328 426.455658,108.968079 
	C429.478821,108.897301 430.054749,110.387466 430.037598,112.969048 
	C430.020844,115.483650 429.605469,117.183449 426.517120,117.022041 
	C423.526733,116.865753 420.511810,116.870834 417.526733,117.079033 
	C416.392456,117.158150 414.329803,118.131584 414.375244,118.473282 
	C414.577820,119.996262 415.389923,121.438164 416.430847,122.942421 
z"/>
<path fill="#006940" opacity="1.000000" stroke="none" 
	d="
M233.186813,117.000381 
	C231.277557,117.132538 229.836731,117.264183 228.267731,117.407539 
	C228.267731,119.291901 228.267731,120.744659 228.267731,122.862785 
	C233.037277,122.862785 237.607178,122.862785 242.577560,122.862785 
	C242.577560,125.734589 242.577560,127.951950 242.577560,130.859161 
	C237.941879,130.859161 233.375610,130.859161 228.422577,130.859161 
	C228.422577,133.415558 228.422577,135.303040 228.422577,137.868027 
	C233.720825,137.868027 238.956406,137.868027 244.580933,137.868027 
	C244.580933,140.748260 244.580933,142.965424 244.580933,145.916245 
	C236.393097,145.916245 228.293335,146.002213 220.202377,145.774887 
	C219.445648,145.753616 218.130524,143.762360 218.113235,142.669357 
	C217.952682,132.511093 217.936172,122.347519 218.144348,112.190941 
	C218.166321,111.119247 219.867966,109.202858 220.841354,109.169571 
	C228.292023,108.914764 235.755356,109.029694 243.595886,109.029694 
	C243.595886,111.773170 243.595886,113.990326 243.595886,116.999863 
	C240.195251,116.999863 236.925247,116.999863 233.186813,117.000381 
z"/>
<path fill="#006940" opacity="1.000000" stroke="none" 
	d="
M72.659439,267.270721 
	C73.591034,269.022736 74.337006,270.462158 75.082977,271.901611 
	C75.295166,271.848724 75.507347,271.795868 75.719536,271.742981 
	C75.480286,268.952087 75.076401,266.163635 75.034363,263.369781 
	C74.931297,256.519287 74.998444,256.518280 82.886604,257.502808 
	C82.886604,265.618561 82.954178,273.859375 82.756737,282.093811 
	C82.741150,282.744019 80.789955,283.987213 79.900612,283.855865 
	C77.354660,283.479858 73.988594,283.305817 72.587296,281.656799 
	C69.767784,278.338806 68.036781,274.095856 65.058014,268.820099 
	C65.058014,274.608276 65.058014,278.934113 65.058014,283.605743 
	C62.537701,283.605743 60.651821,283.605743 58.083668,283.605743 
	C58.083668,275.366547 58.012516,267.270966 58.203568,259.181610 
	C58.220963,258.444977 59.999626,257.064728 60.825180,257.159637 
	C63.400036,257.455627 66.572212,257.591125 68.274940,259.145142 
	C70.335266,261.025543 71.130875,264.291687 72.659439,267.270721 
z"/>
<path fill="#006940" opacity="1.000000" stroke="none" 
	d="
M241.999542,271.985413 
	C242.004211,267.824219 241.803345,264.139191 242.129333,260.501434 
	C242.237869,259.290436 243.690079,257.224030 244.540222,257.217804 
	C249.150772,257.184174 253.856308,257.216583 258.351898,258.113983 
	C262.630676,258.968109 265.133606,264.234589 262.447296,267.403748 
	C259.204651,271.229248 261.458527,274.130585 262.282104,277.422455 
	C262.745270,279.273712 263.536072,281.042999 264.182648,282.858887 
	C257.620209,285.042725 257.035675,284.721924 254.906769,279.309631 
	C254.147964,277.380524 252.877670,275.652618 251.840851,273.832855 
	C251.362350,273.988373 250.883865,274.143890 250.405365,274.299408 
	C250.143127,277.324371 249.880890,280.349304 249.627914,283.267456 
	C242.360123,284.803589 242.023010,284.558472 242.000641,277.979980 
	C241.994400,276.146698 241.999603,274.313385 241.999542,271.985413 
z"/>
<path fill="#006940" opacity="1.000000" stroke="none" 
	d="
M23.697613,276.461060 
	C24.274061,273.524780 24.158514,270.745056 25.108816,268.396606 
	C26.624186,264.651733 20.703009,257.146484 29.107092,257.325470 
	C37.077301,257.495148 31.764074,264.744476 32.800083,268.634155 
	C33.508694,271.294617 32.740288,274.568176 31.934174,277.366547 
	C30.263781,283.165192 26.809919,284.624847 17.807417,283.987305 
	C13.052399,283.650543 9.571930,280.538422 9.165205,275.380493 
	C8.761664,270.262970 8.818584,265.074066 9.209721,259.957428 
	C9.291766,258.884125 11.588171,257.523193 13.084685,257.126404 
	C15.120816,256.586548 17.060869,257.103027 17.001459,260.052887 
	C16.914528,264.369171 16.877741,268.693604 17.044422,273.005890 
	C17.217970,277.495789 19.114840,278.537384 23.697613,276.461060 
z"/>
<path fill="#006940" opacity="1.000000" stroke="none" 
	d="
M204.283173,274.241699 
	C205.137894,275.759521 205.946930,277.470734 207.163116,277.839661 
	C208.992538,278.394592 211.202957,277.654175 213.064651,278.156555 
	C214.206680,278.464722 215.519516,279.956390 215.763000,281.123688 
	C215.919006,281.871490 214.307846,283.775940 213.417618,283.823303 
	C208.449371,284.087799 203.451401,284.085754 198.484436,283.805389 
	C197.614304,283.756287 196.165909,281.972290 196.135574,280.955170 
	C195.927658,273.984772 195.905212,267.000763 196.158554,260.033356 
	C196.196167,258.998566 197.939301,257.246216 198.996628,257.164703 
	C203.290039,256.833649 207.637741,256.836273 211.932617,257.156219 
	C213.001541,257.235840 214.707352,258.941132 214.735596,259.938416 
	C214.763535,260.925110 213.210541,262.447205 212.044006,262.853912 
	C210.558563,263.371826 208.721100,262.783295 207.118896,263.097534 
	C206.065811,263.304077 205.160233,264.262756 204.188599,264.884644 
	C205.082977,265.582489 205.883392,266.557739 206.897751,266.901367 
	C207.943283,267.255554 209.206329,267.092590 210.358276,266.985229 
	C214.495026,266.599426 215.879852,268.301910 214.439743,272.438507 
	C211.141891,272.897858 207.780823,273.366028 204.283173,274.241699 
z"/>
<path fill="#006940" opacity="1.000000" stroke="none" 
	d="
M145.496613,257.894318 
	C153.287476,256.234100 153.262329,256.241089 155.193756,263.200806 
	C155.943573,265.902771 156.829163,268.567291 157.667557,271.244263 
	C157.863388,271.869507 158.118820,272.476074 158.845932,274.437683 
	C160.359879,269.743317 162.048508,266.230286 162.551788,262.554932 
	C163.367355,256.598877 166.707458,256.226074 172.274094,257.711426 
	C169.417084,266.015411 166.844101,274.303101 163.534134,282.285187 
	C163.007553,283.555023 159.144409,283.917694 156.869141,283.802734 
	C155.558716,283.736542 153.690140,282.114563 153.186493,280.774323 
	C150.393799,273.343018 147.942963,265.783234 145.496613,257.894318 
z"/>
<path fill="#006940" opacity="1.000000" stroke="none" 
	d="
M306.394531,271.092316 
	C307.849579,281.981873 300.002655,287.951294 290.132111,283.613647 
	C288.708405,282.987976 288.381531,279.866455 287.170288,277.011963 
	C292.080841,277.011963 295.384186,277.011963 298.687561,277.011963 
	C298.777344,276.438171 298.867157,275.864380 298.956970,275.290588 
	C296.944855,274.484039 294.943115,273.650330 292.918335,272.876923 
	C289.348053,271.513214 286.864563,269.181641 287.102600,265.150696 
	C287.326630,261.356781 289.436798,258.360016 293.168762,257.592834 
	C296.516632,256.904633 300.207825,256.662384 303.478699,257.406036 
	C304.852020,257.718292 305.532990,261.075958 306.810028,263.606567 
	C302.006714,263.606567 298.872955,263.606567 295.739197,263.606567 
	C295.668304,263.929840 295.597412,264.253113 295.526520,264.576416 
	C299.067810,266.640198 302.609070,268.703979 306.394531,271.092316 
z"/>
<path fill="#006940" opacity="1.000000" stroke="none" 
	d="
M404.555115,257.761292 
	C412.069550,255.027237 415.372620,259.253204 417.349365,266.694885 
	C420.785553,260.986633 422.173279,253.684402 430.769989,258.003113 
	C429.299164,260.742676 427.930786,263.878174 426.046448,266.664764 
	C423.164612,270.926453 421.426239,275.322266 421.825012,280.606628 
	C421.903778,281.650238 419.995758,283.689636 418.891205,283.772797 
	C417.345673,283.889191 414.250458,282.457581 414.302307,281.934601 
	C415.256989,272.308411 408.159698,266.175354 404.519470,258.583435 
	C404.449127,258.436707 404.436615,258.262268 404.555115,257.761292 
z"/>
<path fill="#006940" opacity="1.000000" stroke="none" 
	d="
M380.553864,263.787445 
	C380.190033,269.437622 379.947723,274.741852 380.048340,280.039581 
	C380.106354,283.095947 378.949158,284.056030 375.972076,284.068481 
	C372.929230,284.081177 371.812164,282.988037 371.963348,279.986603 
	C372.138428,276.510864 371.967896,273.018982 372.008484,269.534851 
	C372.049072,266.047821 372.741882,262.320587 367.065216,262.695709 
	C366.337250,262.743774 365.410248,259.780334 363.951691,257.040070 
	C371.467285,257.040070 377.391785,256.922607 383.301697,257.163086 
	C384.218781,257.200409 385.709473,258.832825 385.772858,259.803528 
	C385.838043,260.800812 384.648041,262.103271 383.686157,262.868500 
	C383.008301,263.407776 381.793945,263.272705 380.553864,263.787445 
z"/>
<path fill="#006940" opacity="1.000000" stroke="none" 
	d="
M110.999222,271.985474 
	C111.003677,267.827301 111.133484,264.158295 110.973953,260.501923 
	C110.840126,257.434662 112.476387,256.969421 115.010376,256.964050 
	C117.567131,256.958618 119.095428,257.479401 119.030151,260.523560 
	C118.887383,267.181458 118.887550,273.846619 119.029022,280.504578 
	C119.094254,283.574554 117.508652,284.027161 114.981796,284.037231 
	C112.417877,284.047424 110.798965,283.511475 110.978180,280.471252 
	C111.134674,277.816376 111.003372,275.144470 110.999222,271.985474 
z"/>
<path fill="#006940" opacity="1.000000" stroke="none" 
	d="
M333.359741,257.258698 
	C338.907837,256.045563 340.477020,258.192261 340.096161,263.224762 
	C339.672729,268.820007 339.871979,274.475525 340.042664,280.097412 
	C340.136841,283.198517 338.848358,284.039856 335.934235,284.066956 
	C332.863770,284.095459 331.819061,282.923920 331.975464,279.966339 
	C332.373169,272.445892 332.623352,264.917633 333.359741,257.258698 
z"/>
<path fill="#000000" opacity="1.000000" stroke="none" 
	d="
M171.665192,188.056702 
	C173.486923,192.437256 175.119583,196.554810 176.697433,200.693268 
	C176.854843,201.106140 176.678711,201.646164 176.638092,202.562012 
	C172.933929,202.562012 169.283676,202.562012 164.472031,202.562012 
	C166.969360,197.286819 169.215027,192.543213 171.665192,188.056702 
z"/>
<path fill="#000000" opacity="1.000000" stroke="none" 
	d="
M330.720459,186.624222 
	C330.226471,195.771072 330.330994,204.618652 328.793091,213.170898 
	C326.929810,223.532639 316.494598,228.414139 308.565369,222.978912 
	C305.694153,221.010773 303.288391,217.292847 302.265289,213.893295 
	C298.712067,202.086746 298.780396,190.007629 302.164093,178.151733 
	C304.123688,171.285660 309.274292,167.151825 314.642059,167.001755 
	C320.650574,166.833771 325.690918,170.020737 327.729218,175.698868 
	C328.950623,179.101288 329.654572,182.689438 330.720459,186.624222 
z"/>
<path fill="#000000" opacity="1.000000" stroke="none" 
	d="
M281.166016,118.762970 
	C283.895538,123.437523 284.481689,127.972862 282.917542,132.818283 
	C281.881714,136.027054 279.807007,138.373154 276.539154,137.793365 
	C274.191833,137.376877 270.855469,135.667526 270.244415,133.791107 
	C269.047577,130.115784 268.684723,125.783676 269.372009,121.975220 
	C270.278320,116.953224 275.606689,115.645500 281.166016,118.762970 
z"/>
<path fill="#000000" opacity="1.000000" stroke="none" 
	d="
M325.940247,117.631371 
	C326.663116,119.158043 327.597229,121.460327 327.395905,121.564308 
	C325.090759,122.754875 322.612854,123.610992 319.406982,124.857124 
	C319.406982,121.644814 319.406982,119.751892 319.406982,117.385902 
	C321.505280,117.385902 323.564667,117.385902 325.940247,117.631371 
z"/>
</svg>