<svg version="1.1" id="Layer_1" xmlns="http://www.w3.org/2000/svg" xmlns:xlink="http://www.w3.org/1999/xlink" x="0px" y="0px"
	 width="100%" viewBox="0 0 437 319" enable-background="new 0 0 437 319" xml:space="preserve">
<path fill="#FEFEFE" opacity="1.000000" stroke="none" 
	d="
M319.000000,320.000000 
	C212.666687,320.000000 106.833374,320.000000 1.000043,320.000000 
	C1.000028,213.666702 1.000028,107.333412 1.000014,1.000085 
	C146.666611,1.000057 292.333221,1.000057 437.999878,1.000028 
	C437.999908,107.333252 437.999908,213.666504 437.999939,319.999878 
	C398.500000,320.000000 359.000000,320.000000 319.000000,320.000000 
M110.179199,87.325333 
	C124.402077,73.315765 140.232285,61.409534 158.488312,53.319855 
	C171.062103,47.748108 184.223007,43.468349 197.233902,38.933624 
	C201.860657,37.321045 205.194122,35.117100 207.415863,30.453384 
	C211.056381,22.811417 215.507645,15.556517 219.582062,8.119246 
	C220.055771,7.254583 220.308426,6.268807 220.663559,5.339184 
	C206.825577,15.630822 191.183334,21.753023 175.868134,28.588715 
	C166.174530,32.915298 156.580765,37.636959 147.476486,43.075756 
	C130.038315,53.493114 116.883041,67.986481 108.306602,87.177238 
	C108.318764,87.709686 108.330933,88.242126 108.343102,88.774574 
	C108.772110,88.417236 109.201118,88.059891 110.179199,87.325333 
M48.398094,173.141296 
	C52.553608,180.528595 56.620598,187.967850 60.911640,195.275574 
	C62.456543,197.906586 62.693680,200.202881 61.668446,203.151199 
	C58.800537,211.398560 56.321438,219.781113 53.688900,228.110321 
	C54.148766,228.350098 54.608635,228.589874 55.068504,228.829651 
	C58.060616,224.536743 62.351650,220.643875 63.818459,215.881210 
	C69.947617,195.979904 78.709091,177.474976 90.605911,160.431732 
	C93.382301,156.454330 96.405144,152.648972 99.592827,148.392960 
	C100.144875,149.590500 100.387527,149.871445 100.387955,150.152756 
	C100.423141,173.312286 100.483345,196.472092 100.359421,219.630905 
	C100.351074,221.190643 99.259789,223.044510 98.123779,224.240829 
	C94.991333,227.539658 91.567635,230.561920 87.650307,234.269836 
	C114.009125,234.269836 139.378601,234.269836 166.122711,234.269836 
	C162.744751,230.988983 159.870377,228.728470 157.752686,225.901199 
	C156.791016,224.617325 156.641541,221.889359 157.344025,220.387177 
	C158.444992,218.032913 157.824387,213.999374 162.389542,214.137787 
	C168.215912,214.314438 174.053864,214.099258 179.881470,214.254242 
	C180.960678,214.282944 182.464828,214.984543 183.006866,215.853409 
	C186.479568,221.420074 186.143448,224.109772 181.474899,228.602203 
	C179.745239,230.266586 177.702286,231.605362 175.802200,233.092636 
	C176.180283,233.575287 176.558350,234.057938 176.936432,234.540588 
	C177.547531,234.540588 178.158859,234.529510 178.769699,234.542221 
	C199.571167,234.974854 220.373901,235.732224 241.173279,235.649200 
	C247.472336,235.624069 254.152786,234.204407 259.962006,231.764832 
	C268.106445,228.344528 271.949951,221.198547 272.208893,212.207230 
	C272.463318,203.371796 268.230957,197.368927 260.806122,193.234573 
	C258.047821,191.698685 255.199997,190.320831 252.467789,188.741547 
	C247.303253,185.756287 241.885117,183.073776 237.209900,179.444290 
	C235.313797,177.972290 233.659180,173.746735 234.459213,171.863724 
	C235.455124,169.519669 238.968323,167.236771 241.644318,166.897308 
	C244.343506,166.554932 247.829330,168.008820 250.104050,169.785217 
	C253.303925,172.284119 255.704697,175.806274 258.837219,179.329544 
	C263.197662,172.493713 266.805328,166.837952 270.753174,160.648956 
	C267.687927,160.152664 265.455505,159.703812 263.201416,159.441299 
	C253.165131,158.272491 243.239532,155.625824 232.979446,157.969284 
	C221.036835,160.697098 213.457672,170.047684 214.902679,181.139267 
	C215.931137,189.033401 220.842819,194.373566 227.464478,198.173828 
	C234.236923,202.060623 241.264297,205.504181 248.025009,209.410156 
	C253.967438,212.843369 254.471268,219.818161 249.329559,223.926880 
	C244.865814,227.493835 237.916779,227.323181 233.784790,223.310486 
	C230.333618,219.958923 227.115845,216.367004 223.367859,212.433594 
	C219.980591,218.836624 216.932495,224.598541 213.389603,231.295731 
	C210.603699,226.831345 207.768494,223.438705 206.175751,219.538651 
	C198.826843,201.543930 191.929703,183.365234 184.654648,165.339630 
	C180.716980,155.583176 183.608429,157.905350 173.187668,157.375748 
	C169.523132,157.189529 168.065002,158.601547 166.783005,161.856140 
	C159.172974,181.175537 151.429260,200.444977 143.438019,219.609253 
	C141.789536,223.562576 138.903778,226.999985 136.644791,230.585541 
	C129.460815,225.466339 127.528763,219.462982 127.659554,211.584106 
	C128.132416,183.099792 127.931076,154.602310 127.743568,126.111389 
	C127.718582,122.315224 128.781570,119.858124 131.920792,117.911736 
	C143.947556,110.454857 155.915649,102.903351 167.905655,95.387154 
	C166.509079,96.188004 164.528976,95.944374 162.626755,96.226311 
	C146.513519,98.614510 131.379700,103.795441 117.188194,111.882683 
	C100.863792,121.185402 87.256958,132.669693 81.653610,151.628098 
	C79.971138,157.320572 76.999443,162.632004 74.308075,168.832886 
	C65.902855,153.483871 57.366737,139.197891 50.176918,124.263763 
	C46.054924,115.701874 41.222824,111.337898 31.378633,113.005348 
	C26.357450,113.855858 21.073376,113.154320 15.908130,113.154320 
	C12.022938,113.154320 8.137746,113.154320 4.252553,113.154320 
	C4.034519,113.619240 3.816484,114.084152 3.598450,114.549072 
	C6.879488,117.573708 10.367076,120.411324 13.349991,123.705879 
	C14.735818,125.236496 15.869966,127.651115 15.880978,129.671738 
	C16.040800,158.996124 16.040783,188.321945 15.881114,217.646332 
	C15.870100,219.669083 14.725458,222.061920 13.356374,223.623810 
	C10.371909,227.028580 6.902529,230.008286 3.013267,233.757477 
	C18.475430,233.757477 32.599026,233.757477 46.726437,233.757477 
	C43.414322,230.298035 40.097828,227.235046 37.306862,223.751038 
	C35.894772,221.988327 34.678104,219.471619 34.657940,217.283966 
	C34.462914,196.124924 34.533939,174.963348 34.560230,153.802551 
	C34.561653,152.658447 34.841885,151.514694 35.130013,149.323929 
	C39.825558,157.738113 43.941952,165.114487 48.398094,173.141296 
M307.622314,236.026855 
	C308.281769,236.116058 308.942230,236.198318 309.600494,236.295471 
	C326.807983,238.835602 342.856750,230.666962 350.732208,215.358246 
	C358.767975,199.738052 356.073578,179.890549 344.253876,167.637161 
	C332.272125,155.215805 313.975891,151.779617 298.374390,159.020660 
	C284.008667,165.688171 274.279297,182.366028 275.638397,197.994064 
	C277.369354,217.898468 287.843414,230.655258 307.622314,236.026855 
M359.096283,227.476334 
	C356.935059,229.410614 354.773834,231.344894 352.612610,233.279160 
	C352.892426,233.594116 353.172241,233.909073 353.452087,234.224030 
	C364.136963,234.224030 374.821869,234.224030 385.506744,234.224030 
	C374.127014,227.533401 375.366272,216.757523 375.840271,206.243500 
	C375.885254,205.245926 375.846283,204.244553 375.846283,203.244949 
	C375.846283,197.197357 375.846252,191.149780 375.846252,183.663391 
	C392.643036,204.011169 408.438538,223.145966 425.009766,243.220520 
	C425.009766,221.953430 425.387451,201.996262 424.840790,182.064453 
	C424.590149,172.925568 425.464478,164.993988 433.772400,159.593369 
	C434.236084,159.291962 434.469360,158.636139 435.024658,157.835617 
	C423.767944,157.835617 412.951385,157.835617 402.134827,157.835617 
	C401.825623,158.269989 401.516449,158.704376 401.207245,159.138748 
	C402.933868,160.429001 404.809540,161.564468 406.350037,163.047989 
	C408.354065,164.977890 411.549927,167.090698 411.690887,169.287857 
	C412.288330,178.600266 411.944305,187.973053 411.944305,198.386948 
	C401.516541,185.249344 391.918427,173.107986 382.239838,161.031143 
	C381.148315,159.669128 379.638580,157.712952 378.261597,157.661209 
	C369.891357,157.346664 361.503357,157.504288 353.121307,157.504288 
	C352.849976,158.022186 352.578644,158.540070 352.307312,159.057968 
	C354.358978,160.731247 356.352478,162.482803 358.475250,164.060410 
	C362.120209,166.769287 363.205994,170.204071 363.107330,174.786926 
	C362.791840,189.441025 362.882172,204.107590 363.070251,218.766068 
	C363.114349,222.202499 362.474792,224.936783 359.096283,227.476334 
M116.371773,101.827438 
	C134.924057,89.048538 155.849304,82.394279 177.660965,77.969902 
	C179.310638,77.635277 181.505386,76.930923 182.247070,75.684540 
	C186.357834,68.776550 190.097092,61.647488 194.454315,53.698879 
	C156.004547,65.706558 118.278610,76.808281 97.968254,115.363121 
	C103.889076,110.962227 109.809898,106.561325 116.371773,101.827438 
M165.063187,125.769730 
	C164.934113,137.426178 170.539200,144.703232 181.370743,145.855804 
	C187.372223,146.494415 193.497421,145.970337 199.665710,145.970337 
	C199.665710,137.824707 199.665710,131.117523 199.665710,124.465729 
	C194.572739,124.465729 189.832230,124.465729 185.064087,124.465729 
	C185.064087,126.891113 185.064087,128.997375 185.064087,131.246979 
	C186.881424,131.470306 188.471359,131.665695 189.973312,131.850266 
	C190.885223,138.957169 189.593430,140.149765 183.370163,138.324005 
	C178.338730,136.847900 175.229095,132.806122 175.191772,127.694077 
	C175.155991,122.793831 177.923889,118.133286 182.819397,117.289619 
	C187.670517,116.453606 192.778275,117.106766 198.319794,117.106766 
	C198.516266,115.410599 198.793152,113.020172 199.203293,109.479416 
	C193.412613,109.308029 188.014130,108.727798 182.677277,109.080460 
	C172.509781,109.752319 167.178116,114.825050 165.063187,125.769730 
M308.988586,114.644211 
	C308.988586,124.914970 308.988586,135.185730 308.988586,145.544128 
	C312.588959,145.544128 315.643829,145.544128 319.044556,145.544128 
	C319.044556,140.796646 319.044556,136.348557 319.044556,131.866791 
	C326.088593,130.563751 326.725555,136.045059 327.655853,140.039719 
	C328.791718,144.917160 331.162506,146.656342 335.876129,145.868164 
	C337.006500,145.679153 338.178101,145.736511 340.029449,145.646637 
	C337.629486,139.344635 335.354401,133.370575 333.045715,127.308273 
	C337.541046,125.252762 338.865845,121.159813 337.881256,116.332573 
	C336.947144,111.752937 333.280884,109.779396 329.060913,109.568825 
	C322.489624,109.240906 315.889923,109.482101 308.988586,109.482101 
	C308.988586,111.066208 308.988586,112.373459 308.988586,114.644211 
M354.792969,117.508858 
	C348.668030,130.979431 354.479980,143.871216 368.046021,145.768448 
	C374.161682,146.623718 380.496246,145.913361 386.783905,145.913361 
	C386.783905,137.783142 386.783905,131.081863 386.783905,124.424080 
	C381.779022,124.424080 377.181946,124.424080 372.368774,124.424080 
	C372.368774,126.793449 372.368774,128.884979 372.368774,131.190796 
	C374.125183,131.432343 375.732849,131.653442 377.665070,131.919174 
	C377.131256,134.684158 380.058472,138.725815 374.307739,138.933914 
	C368.651794,139.138580 363.754211,135.207779 362.878448,129.823532 
	C361.850983,123.506622 364.483673,118.299454 370.476776,117.200012 
	C375.324219,116.310745 380.464844,117.019676 385.824738,117.019676 
	C385.913086,115.303787 386.038849,112.860199 386.158539,110.535469 
	C374.410919,106.251839 361.650818,108.939682 354.792969,117.508858 
M291.548798,138.844391 
	C292.405701,134.020096 293.947296,129.197739 293.960907,124.371071 
	C293.981903,116.913544 289.520691,111.671219 282.807190,109.615944 
	C274.874786,107.187500 265.951508,109.289627 261.707672,114.586517 
	C255.632965,122.168564 256.851013,136.410568 263.736298,142.466248 
	C269.681274,147.694946 286.073914,148.082733 291.548798,138.844391 
M421.460510,138.409348 
	C419.052063,138.409348 416.643616,138.409348 414.413879,138.409348 
	C414.413879,135.421829 414.413879,133.203018 414.413879,130.687256 
	C419.409637,130.687256 424.025848,130.687256 428.704834,130.687256 
	C428.704834,128.157181 428.704834,125.944763 428.704834,123.397903 
	C423.770447,123.397903 419.158905,123.397903 414.324951,123.397903 
	C414.324951,120.987663 414.324951,118.924339 414.324951,116.453911 
	C419.553284,116.453911 424.496002,116.453911 429.500732,116.453911 
	C429.500732,113.832428 429.500732,111.627380 429.500732,109.484436 
	C420.892700,109.484436 412.666748,109.484436 404.467285,109.484436 
	C404.467285,121.740509 404.467285,133.630447 404.467285,145.624298 
	C413.224548,145.624298 421.634094,145.624298 430.212036,145.624298 
	C430.212036,143.158585 430.212036,140.954239 430.212036,138.409531 
	C427.364471,138.409531 424.891357,138.409531 421.460510,138.409348 
M240.108932,109.126945 
	C232.846573,109.126945 225.584213,109.126945 218.207001,109.126945 
	C218.207001,121.600830 218.207001,133.499008 218.207001,145.634521 
	C226.852905,145.634521 235.264420,145.634521 243.949341,145.634521 
	C243.949341,143.338440 243.949341,141.094376 243.949341,138.264435 
	C238.530609,138.264435 233.329514,138.264435 228.257782,138.264435 
	C228.257782,135.452377 228.257782,133.239304 228.257782,130.671783 
	C233.241806,130.671783 237.843414,130.671783 242.651672,130.671783 
	C242.651672,128.204971 242.651672,126.106331 242.651672,123.451126 
	C237.781586,123.451126 233.048538,123.451126 228.250290,123.451126 
	C228.250290,120.840546 228.250290,118.806465 228.250290,116.270889 
	C233.525085,116.270889 238.425812,116.270889 243.894974,116.270889 
	C242.540115,113.551201 245.871780,109.927582 240.108932,109.126945 
M62.479294,283.566895 
	C63.327354,282.529175 64.824280,281.540375 64.906868,280.444977 
	C65.203896,276.505280 65.023483,272.529572 65.023483,268.567474 
	C67.402832,271.458893 68.879585,274.416626 70.370285,277.367310 
	C73.859314,284.273499 73.862022,284.272125 81.889526,283.088226 
	C81.889526,274.724823 81.889526,266.346283 81.889526,257.978088 
	C79.776512,257.978088 77.987366,257.978088 75.850555,257.978088 
	C75.850555,262.987976 75.850555,267.820099 75.850555,274.170685 
	C73.601585,269.751587 72.029327,266.693573 70.485092,263.621460 
	C67.145432,256.977478 66.216080,256.573761 58.430592,258.582611 
	C58.430592,265.858429 58.302227,273.186462 58.573235,280.499725 
	C58.612499,281.559357 60.566334,282.548004 62.479294,283.566895 
M9.409363,266.540588 
	C9.555381,269.858765 9.366173,273.234528 9.924013,276.481964 
	C10.816717,281.678741 15.208045,284.258514 21.750931,283.940857 
	C27.771046,283.648560 31.627890,280.887329 31.963549,275.770325 
	C32.351452,269.856842 32.053783,263.898376 32.053783,258.076691 
	C29.534098,258.076691 27.425381,258.076691 25.045927,258.076691 
	C25.045927,263.199768 25.088020,268.022278 25.030060,272.843536 
	C24.995581,275.711426 24.247046,278.790131 20.786167,278.120331 
	C19.172283,277.807953 17.134928,274.942017 16.923347,273.050720 
	C16.377062,268.167542 16.740356,263.182587 16.740356,258.197754 
	C13.911272,258.197754 11.729258,258.197754 9.409540,258.197754 
	C9.409540,260.948761 9.409540,263.276733 9.409363,266.540588 
M242.134644,274.433655 
	C242.134644,277.355682 242.134644,280.277710 242.134644,283.181976 
	C244.863281,283.181976 246.905502,283.181976 249.425171,283.181976 
	C249.425171,279.726868 249.425171,276.658936 249.425171,273.591034 
	C249.914139,273.336029 250.403091,273.081055 250.892059,272.826050 
	C252.216202,274.547089 254.344208,276.112885 254.712143,278.018524 
	C255.770416,283.499481 258.805206,284.553375 263.959961,283.003265 
	C262.421509,278.839966 260.893402,274.704773 259.365295,270.569550 
	C259.812836,270.666351 260.260345,270.763184 260.707886,270.859985 
	C261.335419,268.031006 262.681091,265.106995 262.323975,262.408325 
	C262.106110,260.762177 259.388123,258.416931 257.582275,258.208038 
	C252.584137,257.629913 247.475403,258.007812 242.134644,258.007812 
	C242.134644,263.525421 242.134644,268.490723 242.134644,274.433655 
M196.890854,282.579834 
	C202.989227,283.034393 209.087616,283.488922 215.709457,283.982483 
	C215.474121,281.314636 215.338608,279.778351 215.177109,277.947449 
	C211.210022,277.947449 207.772385,277.947449 204.013443,277.947449 
	C204.104462,276.040985 204.178024,274.500092 204.265656,272.664307 
	C207.874741,272.664307 210.984695,272.664307 214.291153,272.664307 
	C214.291153,270.942139 214.291153,269.545166 214.291153,267.709229 
	C210.785568,267.709229 207.550018,267.709229 204.013809,267.709229 
	C204.126801,265.838196 204.212158,264.425018 204.313110,262.753479 
	C207.980453,262.753479 211.272888,262.753479 214.662964,262.753479 
	C214.662964,260.952087 214.662964,259.448395 214.662964,258.062805 
	C208.549301,258.062805 202.798157,258.062805 196.796524,258.062805 
	C196.796524,266.130096 196.796524,273.921326 196.890854,282.579834 
M148.475449,266.138092 
	C150.183594,271.163300 151.744385,276.247498 153.713837,281.168121 
	C154.151505,282.261627 156.030106,283.419952 157.243790,283.418365 
	C159.320816,283.415619 162.778107,283.078003 163.249313,281.910065 
	C166.360611,274.198639 168.829758,266.228119 171.608093,258.047729 
	C168.647675,258.047729 166.538986,258.047729 164.397400,258.047729 
	C162.641235,263.967468 160.947510,269.676788 158.878189,276.652161 
	C158.169174,274.511322 157.940704,273.890198 157.757278,273.256012 
	C156.836700,270.073334 155.917007,266.890381 155.017273,263.701782 
	C153.191193,257.230316 153.196548,257.228790 145.958832,258.311920 
	C146.706070,260.696808 147.442123,263.045959 148.475449,266.138092 
M291.762878,271.831055 
	C293.481781,272.423553 295.332428,272.789276 296.874786,273.685547 
	C297.965424,274.319305 298.638550,275.671478 299.498077,276.702942 
	C298.388519,277.270416 297.280060,278.307739 296.169220,278.310272 
	C293.637909,278.316071 291.105438,277.814423 288.314758,277.488770 
	C288.212006,279.391235 288.125641,280.990356 287.976318,283.755402 
	C291.875732,283.755402 295.478699,284.099487 298.985809,283.666718 
	C303.197388,283.146973 306.573639,281.154114 307.018768,276.273895 
	C307.466309,271.367096 304.678955,269.082428 300.386047,267.794373 
	C298.413940,267.202637 296.590607,266.115112 294.699799,265.252441 
	C294.841827,264.573792 294.983856,263.895172 295.125885,263.216553 
	C298.383484,263.065491 301.641083,262.914429 305.202454,262.749298 
	C305.301300,261.298035 305.407227,259.742981 305.545319,257.716034 
	C301.422760,257.716034 297.690796,257.100250 294.311768,257.927002 
	C291.958984,258.502686 289.201599,260.655457 288.218750,262.825562 
	C286.822876,265.907715 287.611359,269.396942 291.762878,271.831055 
M427.307861,257.807434 
	C419.826416,256.200653 420.980316,263.993439 417.436707,266.954926 
	C414.755035,262.150055 413.908020,254.808914 405.254303,258.393036 
	C408.714142,266.355316 416.568817,272.884613 413.904175,283.269958 
	C416.714325,283.269958 418.784149,283.269958 421.455658,283.269958 
	C419.290192,275.139618 423.805664,269.347137 427.482330,263.269562 
	C428.255127,261.992126 429.098389,260.735107 429.648834,259.364166 
	C429.758118,259.091980 428.676727,258.341705 427.307861,257.807434 
M384.094452,262.997894 
	C384.684601,261.461243 385.274719,259.924591 385.974731,258.101837 
	C378.593689,258.101837 372.334900,258.101837 366.056641,258.101837 
	C366.056641,259.815491 366.056641,261.231506 366.056641,262.756378 
	C368.181824,262.969147 370.079681,263.159119 372.271667,263.378571 
	C372.271667,270.123962 372.271667,276.560486 372.271667,283.274292 
	C374.669189,283.274292 376.733704,283.274292 379.279968,283.274292 
	C379.279968,276.414001 379.279968,269.830109 379.279968,263.018005 
	C380.918213,263.018005 382.074646,263.018005 384.094452,262.997894 
M339.625305,272.473419 
	C339.625305,267.704285 339.625305,262.935150 339.625305,258.048767 
	C336.820526,258.048767 334.574219,258.048767 332.374695,258.048767 
	C332.374695,266.601105 332.374695,274.852112 332.374695,283.242126 
	C334.863281,283.242126 337.068176,283.242126 339.625092,283.242126 
	C339.625092,279.731812 339.625092,276.593170 339.625305,272.473419 
M118.198601,269.504578 
	C118.198601,265.725006 118.198601,261.945465 118.198601,258.115784 
	C115.624329,258.115784 113.572350,258.115784 111.420288,258.115784 
	C111.420288,266.649170 111.420288,274.866669 111.420288,283.246429 
	C113.772675,283.246429 115.836548,283.246429 118.198624,283.246429 
	C118.198624,278.782257 118.198624,274.638977 118.198601,269.504578 
z"/>
<path fill="#066C44" opacity="1.000000" stroke="none" 
	d="
M48.228218,172.816071 
	C43.941952,165.114487 39.825558,157.738113 35.130013,149.323929 
	C34.841885,151.514694 34.561653,152.658447 34.560230,153.802551 
	C34.533939,174.963348 34.462914,196.124924 34.657940,217.283966 
	C34.678104,219.471619 35.894772,221.988327 37.306862,223.751038 
	C40.097828,227.235046 43.414322,230.298035 46.726437,233.757477 
	C32.599026,233.757477 18.475430,233.757477 3.013267,233.757477 
	C6.902529,230.008286 10.371909,227.028580 13.356374,223.623810 
	C14.725458,222.061920 15.870100,219.669083 15.881114,217.646332 
	C16.040783,188.321945 16.040800,158.996124 15.880978,129.671738 
	C15.869966,127.651115 14.735818,125.236496 13.349991,123.705879 
	C10.367076,120.411324 6.879488,117.573708 3.598450,114.549072 
	C3.816484,114.084152 4.034519,113.619240 4.252553,113.154320 
	C8.137746,113.154320 12.022938,113.154320 15.908130,113.154320 
	C21.073376,113.154320 26.357450,113.855858 31.378633,113.005348 
	C41.222824,111.337898 46.054924,115.701874 50.176918,124.263763 
	C57.366737,139.197891 65.902855,153.483871 74.308075,168.832886 
	C76.999443,162.632004 79.971138,157.320572 81.653610,151.628098 
	C87.256958,132.669693 100.863792,121.185402 117.188194,111.882683 
	C131.379700,103.795441 146.513519,98.614510 162.626755,96.226311 
	C164.528976,95.944374 166.509079,96.188004 167.905655,95.387154 
	C155.915649,102.903351 143.947556,110.454857 131.920792,117.911736 
	C128.781570,119.858124 127.718582,122.315224 127.743568,126.111389 
	C127.931076,154.602310 128.132416,183.099792 127.659554,211.584106 
	C127.528763,219.462982 129.460815,225.466339 136.644791,230.585541 
	C138.903778,226.999985 141.789536,223.562576 143.438019,219.609253 
	C151.429260,200.444977 159.172974,181.175537 166.783005,161.856140 
	C168.065002,158.601547 169.523132,157.189529 173.187668,157.375748 
	C183.608429,157.905350 180.716980,155.583176 184.654648,165.339630 
	C191.929703,183.365234 198.826843,201.543930 206.175751,219.538651 
	C207.768494,223.438705 210.603699,226.831345 213.389603,231.295731 
	C216.932495,224.598541 219.980591,218.836624 223.367859,212.433594 
	C227.115845,216.367004 230.333618,219.958923 233.784790,223.310486 
	C237.916779,227.323181 244.865814,227.493835 249.329559,223.926880 
	C254.471268,219.818161 253.967438,212.843369 248.025009,209.410156 
	C241.264297,205.504181 234.236923,202.060623 227.464478,198.173828 
	C220.842819,194.373566 215.931137,189.033401 214.902679,181.139267 
	C213.457672,170.047684 221.036835,160.697098 232.979446,157.969284 
	C243.239532,155.625824 253.165131,158.272491 263.201416,159.441299 
	C265.455505,159.703812 267.687927,160.152664 270.753174,160.648956 
	C266.805328,166.837952 263.197662,172.493713 258.837219,179.329544 
	C255.704697,175.806274 253.303925,172.284119 250.104050,169.785217 
	C247.829330,168.008820 244.343506,166.554932 241.644318,166.897308 
	C238.968323,167.236771 235.455124,169.519669 234.459213,171.863724 
	C233.659180,173.746735 235.313797,177.972290 237.209900,179.444290 
	C241.885117,183.073776 247.303253,185.756287 252.467789,188.741547 
	C255.199997,190.320831 258.047821,191.698685 260.806122,193.234573 
	C268.230957,197.368927 272.463318,203.371796 272.208893,212.207230 
	C271.949951,221.198547 268.106445,228.344528 259.962006,231.764832 
	C254.152786,234.204407 247.472336,235.624069 241.173279,235.649200 
	C220.373901,235.732224 199.571167,234.974854 178.769699,234.542221 
	C178.158859,234.529510 177.547531,234.540588 176.936432,234.540588 
	C176.558350,234.057938 176.180283,233.575287 175.802200,233.092636 
	C177.702286,231.605362 179.745239,230.266586 181.474899,228.602203 
	C186.143448,224.109772 186.479568,221.420074 183.006866,215.853409 
	C182.464828,214.984543 180.960678,214.282944 179.881470,214.254242 
	C174.053864,214.099258 168.215912,214.314438 162.389542,214.137787 
	C157.824387,213.999374 158.444992,218.032913 157.344025,220.387177 
	C156.641541,221.889359 156.791016,224.617325 157.752686,225.901199 
	C159.870377,228.728470 162.744751,230.988983 166.122711,234.269836 
	C139.378601,234.269836 114.009125,234.269836 87.650307,234.269836 
	C91.567635,230.561920 94.991333,227.539658 98.123779,224.240829 
	C99.259789,223.044510 100.351074,221.190643 100.359421,219.630905 
	C100.483345,196.472092 100.423141,173.312286 100.387955,150.152756 
	C100.387527,149.871445 100.144875,149.590500 99.592827,148.392960 
	C96.405144,152.648972 93.382301,156.454330 90.605911,160.431732 
	C78.709091,177.474976 69.947617,195.979904 63.818459,215.881210 
	C62.351650,220.643875 58.060616,224.536743 55.068504,228.829651 
	C54.608635,228.589874 54.148766,228.350098 53.688900,228.110321 
	C56.321438,219.781113 58.800537,211.398560 61.668446,203.151199 
	C62.693680,200.202881 62.456543,197.906586 60.911640,195.275574 
	C56.620598,187.967850 52.553608,180.528595 48.228218,172.816071 
M172.824768,188.806015 
	C172.399673,187.912308 171.974594,187.018600 171.149918,185.284805 
	C168.635742,191.599945 166.361465,197.312561 163.984375,203.283386 
	C168.989304,203.283386 173.350937,203.283386 178.229309,203.283386 
	C176.383743,198.411835 174.702057,193.972916 172.824768,188.806015 
z"/>
<path fill="#046C43" opacity="1.000000" stroke="none" 
	d="
M307.202087,235.975952 
	C287.843414,230.655258 277.369354,217.898468 275.638397,197.994064 
	C274.279297,182.366028 284.008667,165.688171 298.374390,159.020660 
	C313.975891,151.779617 332.272125,155.215805 344.253876,167.637161 
	C356.073578,179.890549 358.767975,199.738052 350.732208,215.358246 
	C342.856750,230.666962 326.807983,238.835602 309.600494,236.295471 
	C308.942230,236.198318 308.281769,236.116058 307.202087,235.975952 
M331.058350,205.283707 
	C332.256744,195.605499 332.037994,186.000565 328.662476,176.755569 
	C326.109589,169.763641 320.913147,165.983353 315.038300,166.185699 
	C309.046417,166.392075 303.727203,170.227570 302.122894,177.467850 
	C300.456116,184.990051 299.509064,192.859161 299.688995,200.542816 
	C299.828644,206.507339 301.242126,212.859756 303.760101,218.260895 
	C308.493927,228.415024 321.294617,228.610046 326.818817,218.832581 
	C328.964050,215.035706 329.650970,210.414932 331.058350,205.283707 
z"/>
<path fill="#066D44" opacity="1.000000" stroke="none" 
	d="
M359.366730,227.221481 
	C362.474792,224.936783 363.114349,222.202499 363.070251,218.766068 
	C362.882172,204.107590 362.791840,189.441025 363.107330,174.786926 
	C363.205994,170.204071 362.120209,166.769287 358.475250,164.060410 
	C356.352478,162.482803 354.358978,160.731247 352.307312,159.057968 
	C352.578644,158.540070 352.849976,158.022186 353.121307,157.504288 
	C361.503357,157.504288 369.891357,157.346664 378.261597,157.661209 
	C379.638580,157.712952 381.148315,159.669128 382.239838,161.031143 
	C391.918427,173.107986 401.516541,185.249344 411.944305,198.386948 
	C411.944305,187.973053 412.288330,178.600266 411.690887,169.287857 
	C411.549927,167.090698 408.354065,164.977890 406.350037,163.047989 
	C404.809540,161.564468 402.933868,160.429001 401.207245,159.138748 
	C401.516449,158.704376 401.825623,158.269989 402.134827,157.835617 
	C412.951385,157.835617 423.767944,157.835617 435.024658,157.835617 
	C434.469360,158.636139 434.236084,159.291962 433.772400,159.593369 
	C425.464478,164.993988 424.590149,172.925568 424.840790,182.064453 
	C425.387451,201.996262 425.009766,221.953430 425.009766,243.220520 
	C408.438538,223.145966 392.643036,204.011169 375.846252,183.663391 
	C375.846252,191.149780 375.846283,197.197357 375.846283,203.244949 
	C375.846283,204.244553 375.885254,205.245926 375.840271,206.243500 
	C375.366272,216.757523 374.127014,227.533401 385.506744,234.224030 
	C374.821869,234.224030 364.136963,234.224030 353.452087,234.224030 
	C353.172241,233.909073 352.892426,233.594116 352.612610,233.279160 
	C354.773834,231.344894 356.935059,229.410614 359.366730,227.221481 
z"/>
<path fill="#FEBF15" opacity="1.000000" stroke="none" 
	d="
M108.779808,86.806541 
	C116.883041,67.986481 130.038315,53.493114 147.476486,43.075756 
	C156.580765,37.636959 166.174530,32.915298 175.868134,28.588715 
	C191.183334,21.753023 206.825577,15.630822 220.663559,5.339184 
	C220.308426,6.268807 220.055771,7.254583 219.582062,8.119246 
	C215.507645,15.556517 211.056381,22.811417 207.415863,30.453384 
	C205.194122,35.117100 201.860657,37.321045 197.233902,38.933624 
	C184.223007,43.468349 171.062103,47.748108 158.488312,53.319855 
	C140.232285,61.409534 124.402077,73.315765 109.704567,87.278091 
	C109.079887,87.089417 108.929848,86.947983 108.779808,86.806541 
z"/>
<path fill="#076D45" opacity="1.000000" stroke="none" 
	d="
M116.051247,101.993927 
	C109.809898,106.561325 103.889076,110.962227 97.968254,115.363121 
	C118.278610,76.808281 156.004547,65.706558 194.454315,53.698879 
	C190.097092,61.647488 186.357834,68.776550 182.247070,75.684540 
	C181.505386,76.930923 179.310638,77.635277 177.660965,77.969902 
	C155.849304,82.394279 134.924057,89.048538 116.051247,101.993927 
z"/>
<path fill="#086E46" opacity="1.000000" stroke="none" 
	d="
M165.096069,125.339508 
	C167.178116,114.825050 172.509781,109.752319 182.677277,109.080460 
	C188.014130,108.727798 193.412613,109.308029 199.203293,109.479416 
	C198.793152,113.020172 198.516266,115.410599 198.319794,117.106766 
	C192.778275,117.106766 187.670517,116.453606 182.819397,117.289619 
	C177.923889,118.133286 175.155991,122.793831 175.191772,127.694077 
	C175.229095,132.806122 178.338730,136.847900 183.370163,138.324005 
	C189.593430,140.149765 190.885223,138.957169 189.973312,131.850266 
	C188.471359,131.665695 186.881424,131.470306 185.064087,131.246979 
	C185.064087,128.997375 185.064087,126.891113 185.064087,124.465729 
	C189.832230,124.465729 194.572739,124.465729 199.665710,124.465729 
	C199.665710,131.117523 199.665710,137.824707 199.665710,145.970337 
	C193.497421,145.970337 187.372223,146.494415 181.370743,145.855804 
	C170.539200,144.703232 164.934113,137.426178 165.096069,125.339508 
z"/>
<path fill="#076D45" opacity="1.000000" stroke="none" 
	d="
M308.988586,114.162460 
	C308.988586,112.373459 308.988586,111.066208 308.988586,109.482101 
	C315.889923,109.482101 322.489624,109.240906 329.060913,109.568825 
	C333.280884,109.779396 336.947144,111.752937 337.881256,116.332573 
	C338.865845,121.159813 337.541046,125.252762 333.045715,127.308273 
	C335.354401,133.370575 337.629486,139.344635 340.029449,145.646637 
	C338.178101,145.736511 337.006500,145.679153 335.876129,145.868164 
	C331.162506,146.656342 328.791718,144.917160 327.655853,140.039719 
	C326.725555,136.045059 326.088593,130.563751 319.044556,131.866791 
	C319.044556,136.348557 319.044556,140.796646 319.044556,145.544128 
	C315.643829,145.544128 312.588959,145.544128 308.988586,145.544128 
	C308.988586,135.185730 308.988586,124.914970 308.988586,114.162460 
M323.944519,116.542160 
	C322.353180,116.542160 320.761841,116.542160 319.238037,116.542160 
	C319.238037,119.392097 319.238037,121.661751 319.238037,125.619858 
	C322.761353,123.889107 325.428894,122.578743 328.096436,121.268387 
	C326.978424,119.751808 325.860413,118.235229 323.944519,116.542160 
z"/>
<path fill="#096E47" opacity="1.000000" stroke="none" 
	d="
M354.973511,117.179672 
	C361.650818,108.939682 374.410919,106.251839 386.158539,110.535469 
	C386.038849,112.860199 385.913086,115.303787 385.824738,117.019676 
	C380.464844,117.019676 375.324219,116.310745 370.476776,117.200012 
	C364.483673,118.299454 361.850983,123.506622 362.878448,129.823532 
	C363.754211,135.207779 368.651794,139.138580 374.307739,138.933914 
	C380.058472,138.725815 377.131256,134.684158 377.665070,131.919174 
	C375.732849,131.653442 374.125183,131.432343 372.368774,131.190796 
	C372.368774,128.884979 372.368774,126.793449 372.368774,124.424080 
	C377.181946,124.424080 381.779022,124.424080 386.783905,124.424080 
	C386.783905,131.081863 386.783905,137.783142 386.783905,145.913361 
	C380.496246,145.913361 374.161682,146.623718 368.046021,145.768448 
	C354.479980,143.871216 348.668030,130.979431 354.973511,117.179672 
z"/>
<path fill="#056C44" opacity="1.000000" stroke="none" 
	d="
M291.321533,139.142029 
	C286.073914,148.082733 269.681274,147.694946 263.736298,142.466248 
	C256.851013,136.410568 255.632965,122.168564 261.707672,114.586517 
	C265.951508,109.289627 274.874786,107.187500 282.807190,109.615944 
	C289.520691,111.671219 293.981903,116.913544 293.960907,124.371071 
	C293.947296,129.197739 292.405701,134.020096 291.321533,139.142029 
M283.478485,122.503937 
	C282.245667,118.429047 279.821716,115.630196 275.257599,116.151779 
	C270.744110,116.667572 268.751038,120.097534 268.366913,124.122658 
	C268.075775,127.173050 267.977875,130.724564 269.279602,133.303116 
	C270.485260,135.691376 273.440735,138.107666 276.025208,138.667603 
	C279.597198,139.441483 282.356110,136.677322 283.084686,133.095627 
	C283.732086,129.912994 283.562042,126.564079 283.478485,122.503937 
z"/>
<path fill="#12744E" opacity="1.000000" stroke="none" 
	d="
M421.939392,138.409439 
	C424.891357,138.409531 427.364471,138.409531 430.212036,138.409531 
	C430.212036,140.954239 430.212036,143.158585 430.212036,145.624298 
	C421.634094,145.624298 413.224548,145.624298 404.467285,145.624298 
	C404.467285,133.630447 404.467285,121.740509 404.467285,109.484436 
	C412.666748,109.484436 420.892700,109.484436 429.500732,109.484436 
	C429.500732,111.627380 429.500732,113.832428 429.500732,116.453911 
	C424.496002,116.453911 419.553284,116.453911 414.324951,116.453911 
	C414.324951,118.924339 414.324951,120.987663 414.324951,123.397903 
	C419.158905,123.397903 423.770447,123.397903 428.704834,123.397903 
	C428.704834,125.944763 428.704834,128.157181 428.704834,130.687256 
	C424.025848,130.687256 419.409637,130.687256 414.413879,130.687256 
	C414.413879,133.203018 414.413879,135.421829 414.413879,138.409348 
	C416.643616,138.409348 419.052063,138.409348 421.939392,138.409439 
z"/>
<path fill="#10734C" opacity="1.000000" stroke="none" 
	d="
M240.560562,109.128021 
	C245.871780,109.927582 242.540115,113.551201 243.894974,116.270889 
	C238.425812,116.270889 233.525085,116.270889 228.250290,116.270889 
	C228.250290,118.806465 228.250290,120.840546 228.250290,123.451126 
	C233.048538,123.451126 237.781586,123.451126 242.651672,123.451126 
	C242.651672,126.106331 242.651672,128.204971 242.651672,130.671783 
	C237.843414,130.671783 233.241806,130.671783 228.257782,130.671783 
	C228.257782,133.239304 228.257782,135.452377 228.257782,138.264435 
	C233.329514,138.264435 238.530609,138.264435 243.949341,138.264435 
	C243.949341,141.094376 243.949341,143.338440 243.949341,145.634521 
	C235.264420,145.634521 226.852905,145.634521 218.207001,145.634521 
	C218.207001,133.499008 218.207001,121.600830 218.207001,109.126945 
	C225.584213,109.126945 232.846573,109.126945 240.560562,109.128021 
z"/>
<path fill="#0D714A" opacity="1.000000" stroke="none" 
	d="
M62.056751,283.568207 
	C60.566334,282.548004 58.612499,281.559357 58.573235,280.499725 
	C58.302227,273.186462 58.430592,265.858429 58.430592,258.582611 
	C66.216080,256.573761 67.145432,256.977478 70.485092,263.621460 
	C72.029327,266.693573 73.601585,269.751587 75.850555,274.170685 
	C75.850555,267.820099 75.850555,262.987976 75.850555,257.978088 
	C77.987366,257.978088 79.776512,257.978088 81.889526,257.978088 
	C81.889526,266.346283 81.889526,274.724823 81.889526,283.088226 
	C73.862022,284.272125 73.859314,284.273499 70.370285,277.367310 
	C68.879585,274.416626 67.402832,271.458893 65.023483,268.567474 
	C65.023483,272.529572 65.203896,276.505280 64.906868,280.444977 
	C64.824280,281.540375 63.327354,282.529175 62.056751,283.568207 
z"/>
<path fill="#12744E" opacity="1.000000" stroke="none" 
	d="
M9.409451,266.072632 
	C9.409540,263.276733 9.409540,260.948761 9.409540,258.197754 
	C11.729258,258.197754 13.911272,258.197754 16.740356,258.197754 
	C16.740356,263.182587 16.377062,268.167542 16.923347,273.050720 
	C17.134928,274.942017 19.172283,277.807953 20.786167,278.120331 
	C24.247046,278.790131 24.995581,275.711426 25.030060,272.843536 
	C25.088020,268.022278 25.045927,263.199768 25.045927,258.076691 
	C27.425381,258.076691 29.534098,258.076691 32.053783,258.076691 
	C32.053783,263.898376 32.351452,269.856842 31.963549,275.770325 
	C31.627890,280.887329 27.771046,283.648560 21.750931,283.940857 
	C15.208045,284.258514 10.816717,281.678741 9.924013,276.481964 
	C9.366173,273.234528 9.555381,269.858765 9.409451,266.072632 
z"/>
<path fill="#0D714A" opacity="1.000000" stroke="none" 
	d="
M242.134644,273.944824 
	C242.134644,268.490723 242.134644,263.525421 242.134644,258.007812 
	C247.475403,258.007812 252.584137,257.629913 257.582275,258.208038 
	C259.388123,258.416931 262.106110,260.762177 262.323975,262.408325 
	C262.681091,265.106995 261.335419,268.031006 260.707886,270.859985 
	C260.260345,270.763184 259.812836,270.666351 259.365295,270.569550 
	C260.893402,274.704773 262.421509,278.839966 263.959961,283.003265 
	C258.805206,284.553375 255.770416,283.499481 254.712143,278.018524 
	C254.344208,276.112885 252.216202,274.547089 250.892059,272.826050 
	C250.403091,273.081055 249.914139,273.336029 249.425171,273.591034 
	C249.425171,276.658936 249.425171,279.726868 249.425171,283.181976 
	C246.905502,283.181976 244.863281,283.181976 242.134644,283.181976 
	C242.134644,280.277710 242.134644,277.355682 242.134644,273.944824 
M250.534210,262.854797 
	C249.950272,264.416748 249.366333,265.978699 248.782394,267.540649 
	C249.293045,268.002625 249.803696,268.464600 250.314346,268.926605 
	C252.122055,267.837860 253.929764,266.749115 255.737473,265.660400 
	C254.283875,264.712860 252.830292,263.765320 250.534210,262.854797 
z"/>
<path fill="#0F724B" opacity="1.000000" stroke="none" 
	d="
M196.843689,282.146179 
	C196.796524,273.921326 196.796524,266.130096 196.796524,258.062805 
	C202.798157,258.062805 208.549301,258.062805 214.662964,258.062805 
	C214.662964,259.448395 214.662964,260.952087 214.662964,262.753479 
	C211.272888,262.753479 207.980453,262.753479 204.313110,262.753479 
	C204.212158,264.425018 204.126801,265.838196 204.013809,267.709229 
	C207.550018,267.709229 210.785568,267.709229 214.291153,267.709229 
	C214.291153,269.545166 214.291153,270.942139 214.291153,272.664307 
	C210.984695,272.664307 207.874741,272.664307 204.265656,272.664307 
	C204.178024,274.500092 204.104462,276.040985 204.013443,277.947449 
	C207.772385,277.947449 211.210022,277.947449 215.177109,277.947449 
	C215.338608,279.778351 215.474121,281.314636 215.709457,283.982483 
	C209.087616,283.488922 202.989227,283.034393 196.843689,282.146179 
z"/>
<path fill="#0B7048" opacity="1.000000" stroke="none" 
	d="
M148.326813,265.766602 
	C147.442123,263.045959 146.706070,260.696808 145.958832,258.311920 
	C153.196548,257.228790 153.191193,257.230316 155.017273,263.701782 
	C155.917007,266.890381 156.836700,270.073334 157.757278,273.256012 
	C157.940704,273.890198 158.169174,274.511322 158.878189,276.652161 
	C160.947510,269.676788 162.641235,263.967468 164.397400,258.047729 
	C166.538986,258.047729 168.647675,258.047729 171.608093,258.047729 
	C168.829758,266.228119 166.360611,274.198639 163.249313,281.910065 
	C162.778107,283.078003 159.320816,283.415619 157.243790,283.418365 
	C156.030106,283.419952 154.151505,282.261627 153.713837,281.168121 
	C151.744385,276.247498 150.183594,271.163300 148.326813,265.766602 
z"/>
<path fill="#0F724B" opacity="1.000000" stroke="none" 
	d="
M291.431854,271.624298 
	C287.611359,269.396942 286.822876,265.907715 288.218750,262.825562 
	C289.201599,260.655457 291.958984,258.502686 294.311768,257.927002 
	C297.690796,257.100250 301.422760,257.716034 305.545319,257.716034 
	C305.407227,259.742981 305.301300,261.298035 305.202454,262.749298 
	C301.641083,262.914429 298.383484,263.065491 295.125885,263.216553 
	C294.983856,263.895172 294.841827,264.573792 294.699799,265.252441 
	C296.590607,266.115112 298.413940,267.202637 300.386047,267.794373 
	C304.678955,269.082428 307.466309,271.367096 307.018768,276.273895 
	C306.573639,281.154114 303.197388,283.146973 298.985809,283.666718 
	C295.478699,284.099487 291.875732,283.755402 287.976318,283.755402 
	C288.125641,280.990356 288.212006,279.391235 288.314758,277.488770 
	C291.105438,277.814423 293.637909,278.316071 296.169220,278.310272 
	C297.280060,278.307739 298.388519,277.270416 299.498077,276.702942 
	C298.638550,275.671478 297.965424,274.319305 296.874786,273.685547 
	C295.332428,272.789276 293.481781,272.423553 291.431854,271.624298 
z"/>
<path fill="#0B7048" opacity="1.000000" stroke="none" 
	d="
M427.726135,257.809692 
	C428.676727,258.341705 429.758118,259.091980 429.648834,259.364166 
	C429.098389,260.735107 428.255127,261.992126 427.482330,263.269562 
	C423.805664,269.347137 419.290192,275.139618 421.455658,283.269958 
	C418.784149,283.269958 416.714325,283.269958 413.904175,283.269958 
	C416.568817,272.884613 408.714142,266.355316 405.254303,258.393036 
	C413.908020,254.808914 414.755035,262.150055 417.436707,266.954926 
	C420.980316,263.993439 419.826416,256.200653 427.726135,257.809692 
z"/>
<path fill="#0B7048" opacity="1.000000" stroke="none" 
	d="
M383.662781,263.007935 
	C382.074646,263.018005 380.918213,263.018005 379.279968,263.018005 
	C379.279968,269.830109 379.279968,276.414001 379.279968,283.274292 
	C376.733704,283.274292 374.669189,283.274292 372.271667,283.274292 
	C372.271667,276.560486 372.271667,270.123962 372.271667,263.378571 
	C370.079681,263.159119 368.181824,262.969147 366.056641,262.756378 
	C366.056641,261.231506 366.056641,259.815491 366.056641,258.101837 
	C372.334900,258.101837 378.593689,258.101837 385.974731,258.101837 
	C385.274719,259.924591 384.684601,261.461243 383.662781,263.007935 
z"/>
<path fill="#1B7954" opacity="1.000000" stroke="none" 
	d="
M339.625183,272.963989 
	C339.625092,276.593170 339.625092,279.731812 339.625092,283.242126 
	C337.068176,283.242126 334.863281,283.242126 332.374695,283.242126 
	C332.374695,274.852112 332.374695,266.601105 332.374695,258.048767 
	C334.574219,258.048767 336.820526,258.048767 339.625305,258.048767 
	C339.625305,262.935150 339.625305,267.704285 339.625183,272.963989 
z"/>
<path fill="#0D714A" opacity="1.000000" stroke="none" 
	d="
M118.198608,270.000122 
	C118.198624,274.638977 118.198624,278.782257 118.198624,283.246429 
	C115.836548,283.246429 113.772675,283.246429 111.420288,283.246429 
	C111.420288,274.866669 111.420288,266.649170 111.420288,258.115784 
	C113.572350,258.115784 115.624329,258.115784 118.198601,258.115784 
	C118.198601,261.945465 118.198601,265.725006 118.198608,270.000122 
z"/>
<path fill="#FEBF15" opacity="1.000000" stroke="none" 
	d="
M109.430031,87.466705 
	C109.201118,88.059891 108.772110,88.417236 108.343102,88.774574 
	C108.330933,88.242126 108.318764,87.709686 108.543205,86.991890 
	C108.929848,86.947983 109.079887,87.089417 109.430031,87.466705 
z"/>
<path fill="#E8F2EE" opacity="1.000000" stroke="none" 
	d="
M172.922577,189.170013 
	C174.702057,193.972916 176.383743,198.411835 178.229309,203.283386 
	C173.350937,203.283386 168.989304,203.283386 163.984375,203.283386 
	C166.361465,197.312561 168.635742,191.599945 171.149918,185.284805 
	C171.974594,187.018600 172.399673,187.912308 172.922577,189.170013 
z"/>
<path fill="#FCFDFD" opacity="1.000000" stroke="none" 
	d="
M331.030273,205.726593 
	C329.650970,210.414932 328.964050,215.035706 326.818817,218.832581 
	C321.294617,228.610046 308.493927,228.415024 303.760101,218.260895 
	C301.242126,212.859756 299.828644,206.507339 299.688995,200.542816 
	C299.509064,192.859161 300.456116,184.990051 302.122894,177.467850 
	C303.727203,170.227570 309.046417,166.392075 315.038300,166.185699 
	C320.913147,165.983353 326.109589,169.763641 328.662476,176.755569 
	C332.037994,186.000565 332.256744,195.605499 331.030273,205.726593 
z"/>
<path fill="#E8F2EE" opacity="1.000000" stroke="none" 
	d="
M324.343445,116.630402 
	C325.860413,118.235229 326.978424,119.751808 328.096436,121.268387 
	C325.428894,122.578743 322.761353,123.889107 319.238037,125.619858 
	C319.238037,121.661751 319.238037,119.392097 319.238037,116.542160 
	C320.761841,116.542160 322.353180,116.542160 324.343445,116.630402 
z"/>
<path fill="#FAFCFB" opacity="1.000000" stroke="none" 
	d="
M283.615662,122.896255 
	C283.562042,126.564079 283.732086,129.912994 283.084686,133.095627 
	C282.356110,136.677322 279.597198,139.441483 276.025208,138.667603 
	C273.440735,138.107666 270.485260,135.691376 269.279602,133.303116 
	C267.977875,130.724564 268.075775,127.173050 268.366913,124.122658 
	C268.751038,120.097534 270.744110,116.667572 275.257599,116.151779 
	C279.821716,115.630196 282.245667,118.429047 283.615662,122.896255 
z"/>
<path fill="#E8F2EE" opacity="1.000000" stroke="none" 
	d="
M250.955444,262.836304 
	C252.830292,263.765320 254.283875,264.712860 255.737473,265.660400 
	C253.929764,266.749115 252.122055,267.837860 250.314346,268.926605 
	C249.803696,268.464600 249.293045,268.002625 248.782394,267.540649 
	C249.366333,265.978699 249.950272,264.416748 250.955444,262.836304 
z"/>
</svg>