<?xml version="1.0" encoding="utf-8"?>
<!-- Generator: Adobe Illustrator 25.0.1, SVG Export Plug-In . SVG Version: 6.00 Build 0)  -->
<svg version="1.0" id="Layer_1" xmlns="http://www.w3.org/2000/svg" xmlns:xlink="http://www.w3.org/1999/xlink" x="0px" y="0px"
	 viewBox="0 0 256 196.5" style="enable-background:new 0 0 256 196.5;" xml:space="preserve">
<style type="text/css">
	.st0{fill:#FFFFFF;}
	.st1{fill:#00508F;}
	.st2{fill:#FFC20E;}
	.st3{fill:#EE312F;}
</style>
<path class="st0" d="M227,148H29V48.5h198V148z"/>
<path d="M104.4,91.3c-0.2,6.7,5,12.3,11.6,12.5c0.3,0,0.5,0,0.8,0c7.4,0,12.9-5.3,12.9-13.2c0.2-6.6-4.9-12.2-11.6-12.4
	c-0.2,0-0.4,0-0.6,0C108.8,78.2,104.4,84.9,104.4,91.3 M108.1,90.3c0-7.2,3.9-11.2,8.4-11.2c5.6,0,9.5,4.8,9.5,13.1
	c0,7-3.8,10.9-8.3,10.9C111.9,103,108.1,97.5,108.1,90.3 M134.4,84.9c-0.8,0-1.2,0-1.6-0.7h-0.3l-0.3,5h0.4c0.3-0.9,0.7-1.8,1.2-2.5
	c0.4-0.6,1.1-1.1,3.7-1.1h1.5v13.7c0,3.1-0.2,3.4-2.9,3.7v0.4h8.3v-0.4c-2.8-0.3-3.1-0.7-3.1-3.7V85.5h2.1c1.8,0,2.6,0.4,3.1,1
	c0.5,0.8,1,1.7,1.2,2.7l0.4-0.1l-0.3-4.9h-0.3c-0.3,0.5-0.9,0.8-1.5,0.7L134.4,84.9z M155.4,103.3v-0.4l-0.6-0.1
	c-1.6-0.3-1.8-0.7-1.4-2.4c0.4-1.4,0.8-2.8,1.4-4.2h6.2l1.9,5.1c0.3,0.9,0.2,1.2-0.9,1.4l-1,0.3v0.4h6.9v-0.4
	c-1.8-0.4-2.2-0.7-3.1-3l-3.8-10l-2.1-5.4l-0.4,0.1l-5.9,14.9c-1.1,2.7-1.4,2.9-3.3,3.4v0.4L155.4,103.3z M157.8,88.1L157.8,88.1
	l2.8,7.2H155L157.8,88.1z M187.3,89.6l-0.5-4.4c-1.8-0.5-3.7-0.7-5.5-0.7c-5.5,0-10.7,3.4-10.7,9.8c0,5.6,4.4,9.4,10.5,9.4
	c2.1-0.1,4.3-0.5,6.3-1.1c-0.1-0.9-0.2-1.7-0.2-2.6V98c0-2,0.1-2.2,1.7-2.6V95h-7.3v0.4c3.1,0.4,3.3,0.7,3.3,2.6v2.7
	c0,1.3-0.4,1.6-1.1,1.9c-0.8,0.3-1.7,0.5-2.6,0.4c-5.7,0-7.8-5-7.8-9.3c0-5.4,2.9-8.7,7.2-8.7c2.7,0,5.1,1,6.2,4.6L187.3,89.6z"/>
<path d="M192.8,94.3c-0.2,5,3.7,9.2,8.7,9.4c0.2,0,0.4,0,0.6,0c5.5,0,9.7-4,9.7-9.9c0.2-5-3.7-9.1-8.7-9.3c-0.2,0-0.3,0-0.5,0
	C196.1,84.4,192.8,89.4,192.8,94.3 M195.6,93.5c0-5.4,2.9-8.4,6.3-8.4c4.2,0,7.1,3.6,7.1,9.8c0,5.3-2.8,8.2-6.3,8.2
	C198.4,103,195.6,98.9,195.6,93.5 M155.9,75.5c-0.3,0-0.6,0.1-0.9,0.3c-0.6,0.4-1,1.1-1,1.9c-0.1,0.5,0.3,1,0.9,1.1c0,0,0.1,0,0.1,0
	c0.4,0,0.8-0.2,1.2-0.5c0.5-0.5,0.8-1.1,0.8-1.8c0-0.5-0.4-0.9-0.9-1L155.9,75.5 M155.7,75.9c0.3,0,0.5,0.2,0.5,0.8
	c0.1,0.7-0.2,1.4-0.7,1.8c-0.1,0-0.1,0-0.2,0c-0.3,0-0.5-0.3-0.5-0.9c-0.1-0.7,0.2-1.3,0.7-1.7C155.5,75.9,155.6,75.9,155.7,75.9
	 M161.5,75.7c0.2-1.4,0.4-1.7,0.6-1.7c0.2,0,0.4,0.1,0.5,0.3c0.1,0.1,0.2,0.1,0.3,0c0.1-0.1,0.2-0.2,0.2-0.3c0-0.2-0.2-0.3-0.5-0.3
	c-0.5,0-0.9,0.2-1.2,0.6c-0.3,0.4-0.5,0.9-0.6,1.4h-0.4l-0.2,0.2V76h0.6l-0.3,2.1c0,0.6-0.2,1.3-0.4,1.8c0,0.1-0.1,0.1-0.2,0.1
	c-0.1,0-0.2-0.1-0.3-0.1c-0.1,0-0.2,0-0.2,0c-0.1,0.1-0.1,0.2-0.1,0.3c0,0.2,0.2,0.2,0.3,0.2c0.3,0,0.6-0.2,0.8-0.5
	c0.5-0.7,0.8-1.5,0.9-2.4l0.3-1.6l0.7-0.1l0.2-0.2L161.5,75.7z M103.1,62.1v0.3c0.9,0.1,1,0.1,1,1.3v2.7c0,1.4,0.3,2.2,0.9,2.7
	c0.6,0.4,1.3,0.6,2.1,0.6c0.8,0,1.6-0.3,2.1-0.9c0.6-0.8,0.9-1.8,0.8-2.8v-0.8l0.1-2.3c0.1-0.4,0.4-0.6,0.9-0.6v-0.3h-2.8v0.3
	c0.8,0,1.1,0.2,1.1,0.6c0.1,0.8,0.1,1.5,0.1,2.3V66c0,2-0.7,3.1-2.1,3.1s-2-1-2-2.8v-2.4c0-1.2,0.1-1.3,0.9-1.4v-0.3L103.1,62.1z
	 M116.1,62.1v0.3c1,0.1,1.2,0.3,1.2,1.7v2.2l-0.1,2.3c-0.1,0.4-0.4,0.6-1,0.6v0.3h2.8v-0.3c-0.8-0.1-1.1-0.2-1.1-0.6
	c-0.1-0.8-0.1-1.5-0.1-2.3v-2.4l0,0l4.8,5.8h0.5v-4.3l0.1-2.3c0.1-0.4,0.4-0.6,1-0.6v-0.3h-2.8v0.3c0.8,0,1.1,0.2,1.1,0.6
	c0.1,0.8,0.1,1.5,0.1,2.3v2.2l0,0l-4.7-5.4L116.1,62.1z"/>
<path id="L" d="M129.6,62.1v0.3c0.9,0.1,1,0.2,1,1.4v4c0,1.2-0.1,1.3-1,1.4v0.3h3.3v-0.3c-0.9-0.1-1-0.2-1-1.4v-4
	c0-1.2,0.1-1.3,1-1.4v-0.3H129.6z"/>
<path d="M138.1,62.1v0.3c0.7,0.1,0.8,0.1,1.2,1.2l2.3,6h0.5l2.5-6c0.5-1.1,0.6-1.2,1.3-1.2V62h-2.7v0.3h0.3c0.5,0.1,0.6,0.2,0.4,0.9
	l-1.7,4.5l-1.9-4.8c-0.1-0.4-0.1-0.5,0.3-0.6l0.4-0.1v-0.3L138.1,62.1z M151.1,62.1v0.3c0.9,0.1,1,0.2,1,1.4v4
	c0,1.2-0.1,1.3-1.1,1.4v0.3h5.7c0.1-0.3,0.4-1.5,0.4-1.9l-0.4-0.1c-0.1,0.4-0.3,0.8-0.6,1.2c-0.4,0.3-0.9,0.4-1.4,0.3
	c-0.4,0-0.8,0-1.1-0.2c-0.2-0.2-0.2-0.5-0.2-1.1v-1.9h1c1,0,1,0,1.1,1h0.4v-2.5h-0.4c-0.1,0.9-0.1,1-1.1,1h-1v-2.5
	c0-0.4,0-0.4,0.5-0.4h0.6c0.7,0,1.1,0.1,1.3,0.3c0.2,0.3,0.4,0.6,0.4,1h0.4l-0.1-1.8L151.1,62.1z M164.6,62.9c0-0.4,0-0.4,0.6-0.4
	c0.8-0.1,1.5,0.6,1.6,1.4c0,0.1,0,0.2,0,0.2c0,0.6-0.2,1.1-0.6,1.5c-0.3,0.2-0.7,0.3-1.1,0.3h-0.4V62.9z M162.3,62.1v0.3
	c0.9,0.1,1,0.2,1,1.4v4c0,1.2-0.1,1.3-1,1.4v0.3h3.3v-0.3c-0.9-0.1-1-0.2-1-1.4v-1.5h0.4c0.3,0,0.5,0.1,0.7,0.4l1.1,1.9
	c0.5,0.7,1.3,1.1,2.1,1.1h0.5l0.1-0.3c-0.3-0.1-0.6-0.3-0.8-0.5c-0.4-0.4-0.7-0.8-1-1.3c-0.4-0.5-0.8-1.3-1-1.7
	c0.9-0.2,1.5-1.1,1.6-2c0-0.6-0.3-1.1-0.8-1.4c-0.6-0.3-1.3-0.4-1.9-0.4L162.3,62.1z M179,63.7l-0.2-1.5c-0.1-0.1-0.3-0.1-0.5-0.2
	c-0.3-0.1-0.7-0.2-1.1-0.2c-1.2-0.1-2.3,0.7-2.5,2c0,0.1,0,0.2,0,0.2c0,1.1,1,1.7,1.8,2.1l0.4,0.2c0.9,0.4,1.2,0.9,1.2,1.6
	c0,0.7-0.5,1.3-1.1,1.3c0,0-0.1,0-0.1,0c-1.2,0-1.8-1.3-2.1-1.9l-0.4,0.1l0.4,1.8l0.7,0.2c0.4,0.1,0.8,0.2,1.2,0.2
	c1.3,0.2,2.4-0.7,2.6-2c0.2-1.2-0.6-2.2-1.7-2.5l-0.3-0.1c-0.9-0.4-1.4-0.8-1.4-1.5c0-0.6,0.4-1.2,1.1-1.2c0,0,0.1,0,0.1,0
	c1,0,1.4,0.8,1.6,1.5L179,63.7z M184.8,62.1v0.3c0.9,0.1,1,0.2,1,1.4v4c0,1.2-0.1,1.3-1,1.4v0.3h3.3v-0.3c-0.9-0.1-1-0.2-1-1.4v-4
	c0-1.2,0.1-1.3,1-1.4v-0.3L184.8,62.1z M193.8,63.9c0.1-0.4,0.2-0.7,0.4-1c0.2-0.2,0.5-0.3,1.5-0.3h0.4v5.3c0,1.2-0.1,1.3-1.1,1.4
	v0.3h3.6v-0.3c-1.1-0.1-1.2-0.2-1.2-1.4v-5.3h0.6c0.7,0,1.1,0.1,1.3,0.3c0.2,0.3,0.4,0.7,0.4,1.1h0.4l-0.1-2.1h-0.2
	c-0.2,0.2-0.2,0.3-0.6,0.3h-4.8c-0.3,0-0.4,0-0.6-0.3h-0.2l-0.1,2.1L193.8,63.9z M205.1,62.1v0.3c0.6,0.1,0.7,0.1,1.2,1l1.6,2.7
	c0.1,0.2,0.2,0.4,0.2,0.6v1.1c0,1.2-0.1,1.3-1.1,1.4v0.3h3.5v-0.3c-1.1-0.1-1.1-0.2-1.1-1.4v-1.3c0-0.2,0-0.5,0.1-0.7l1.5-2.5
	c0.5-0.8,0.6-0.9,1.3-1v-0.3h-2.6v0.3h0.5c0.4,0,0.5,0.2,0.3,0.6c-0.4,0.9-0.8,1.8-1.3,2.7c-0.5-0.8-1.2-2.2-1.5-2.7
	c-0.2-0.4-0.2-0.5,0.1-0.5l0.5-0.1v-0.3L205.1,62.1z"/>
<path d="M104.2,72.2h108.2v-0.4H104.2V72.2z"/>
<path d="M104.8,116.9c-0.2,0-0.4,0-0.5-0.2h-0.1l-0.4,1.6h0.1c0.1-0.3,0.3-0.6,0.6-0.9c0.2-0.2,0.5-0.3,1.3-0.3h0.4l-0.8,4.5
	c-0.2,1-0.3,1.1-1.2,1.2v0.1h2.7v-0.1c-0.9-0.1-1-0.2-0.8-1.2l0.8-4.5h0.6c0.6,0,0.9,0.1,1,0.3c0.1,0.3,0.2,0.6,0.3,0.9h0.1l0.2-1.6
	h-0.1c-0.1,0.2-0.3,0.2-0.5,0.2L104.8,116.9z M111.4,121.9c-0.4,0.4-0.9,0.7-1.5,0.7c-0.6,0-0.7-0.7-0.7-1.2c0-0.1,0-0.2,0-0.3
	c0.9-0.3,2.5-0.8,2.5-1.7c0-0.4-0.3-0.7-0.7-0.7c0,0,0,0,0,0c-0.5,0.1-1,0.3-1.4,0.6c-0.7,0.6-1.1,1.4-1.1,2.3c0,1.1,0.6,1.4,1,1.4
	C110.3,123.1,111,122.7,111.4,121.9L111.4,121.9z M109.3,121c0-0.7,0.3-1.3,0.8-1.7c0.1-0.1,0.3-0.1,0.4-0.1c0.2,0,0.5,0.2,0.5,0.4
	c0,0,0,0,0,0.1C111,120.2,110.7,120.7,109.3,121 M117.6,117h-2.1v0.1c0.6,0.1,0.6,0.1,0.7,1.1l0.7,5h0.2l2.4-4.7l0,0l0.9,4.7h0.1
	l2.4-5.2c0.4-0.7,0.4-0.8,1-0.9V117h-1.9v0.1l0.4,0.1c0.3,0.1,0.3,0.2,0.2,0.6c-0.2,0.8-1.2,2.8-1.8,4.2l0,0l-0.9-4.8h-0.1l-2.3,4.8
	l0,0l-0.5-4c-0.1-0.5,0-0.6,0.3-0.6l0.4-0.1L117.6,117z M124.5,122.9c0.1-0.6,0.2-1.3,0.4-1.9s1.3-1.6,1.8-1.6
	c0.3,0,0.2,0.3,0.1,0.8l-0.5,2.2c-0.1,0.5,0,0.7,0.2,0.7c0.5-0.2,1-0.5,1.3-0.9l-0.1-0.1c-0.2,0.2-0.4,0.3-0.7,0.4
	c-0.1,0-0.1-0.1,0-0.4l0.5-2.2c0.2-0.9-0.1-1-0.3-1c-0.1,0-0.3,0-0.4,0.1c-0.7,0.4-1.3,0.9-1.8,1.5l0,0l0.8-3.7c0-0.2,0-0.4-0.1-0.4
	s-0.8,0.2-1.5,0.4v0.1h0.5c0.3,0,0.3,0.1,0.2,0.5l-0.9,4.3l-0.3,1.4L124.5,122.9z M132.6,122.1c-0.2,0.2-0.5,0.3-0.7,0.4
	c-0.1,0-0.1-0.1,0-0.4l0.6-3.1l0,0c-0.1,0-0.2,0-0.4-0.1c-0.2,0-0.3-0.1-0.5-0.1c-0.7,0.1-1.3,0.3-1.8,0.8c-0.7,0.7-1,1.6-1,2.5
	c0,0.8,0.3,1,0.6,1c0.3-0.1,0.5-0.3,0.8-0.4c0.5-0.4,0.9-0.8,1.3-1.3l0,0l-0.2,1.2c-0.1,0.4,0.1,0.6,0.2,0.6c0.5-0.2,1-0.5,1.4-0.9
	L132.6,122.1z M131.2,119.2c0.2,0,0.4,0,0.6,0.1c-0.1,0.5-0.2,1.1-0.4,1.6c-0.2,0.4-0.4,0.7-0.7,1c-0.2,0.3-0.5,0.5-0.9,0.7
	c-0.2,0-0.2-0.3-0.2-0.6c0-0.5,0.1-1.1,0.3-1.6c0.1-0.4,0.4-0.8,0.8-1C130.8,119.3,131,119.3,131.2,119.2 M134.6,122.9
	c0.1-0.6,0.2-1.2,0.3-1.8c0.1-0.4,0.3-0.7,0.5-1c0.2-0.3,0.4-0.4,0.5-0.4c0.1,0,0.2,0,0.3,0.1c0.1,0.1,0.1,0.1,0.2,0
	c0.1-0.1,0.2-0.2,0.2-0.3c0.1-0.1,0.1-0.2,0-0.3c-0.1-0.1-0.2-0.2-0.4-0.2c-0.2,0-0.8,0.6-1.3,1.6l0,0l0.1-0.8
	c0.1-0.5,0.1-0.8-0.1-0.8c-0.5,0.2-1,0.6-1.3,1l0.1,0.1c0.2-0.2,0.4-0.4,0.7-0.5c0.1,0,0.1,0.2,0,0.7l-0.3,1.5l-0.3,1.5L134.6,122.9
	z M140,121.9c-0.4,0.4-0.9,0.7-1.5,0.7c-0.6,0-0.7-0.7-0.7-1.2c0-0.1,0-0.2,0-0.3c0.9-0.3,2.4-0.8,2.4-1.7c0-0.4-0.3-0.7-0.7-0.7
	c0,0,0,0-0.1,0c-0.5,0.1-1,0.3-1.4,0.6c-0.7,0.6-1.1,1.4-1.1,2.3c0,1.1,0.6,1.4,1,1.4C138.9,123.1,139.6,122.7,140,121.9L140,121.9z
	 M137.9,121c0-0.7,0.3-1.3,0.8-1.7c0.1-0.1,0.3-0.1,0.4-0.1c0.2,0,0.5,0.2,0.5,0.4c0,0,0,0.1,0,0.1
	C139.7,120.2,139.3,120.6,137.9,121 M146.2,117h-2.1v0.1c0.6,0.1,0.6,0.1,0.7,1.1l0.7,5h0.1l2.4-4.7l0,0l0.9,4.7h0.1l2.4-5.2
	c0.4-0.7,0.4-0.8,1.1-0.9v-0.1h-1.9v0.1l0.4,0.1c0.3,0.1,0.3,0.2,0.2,0.6c-0.2,0.8-1.2,2.8-1.8,4.2l0,0l-0.9-4.8h-0.1l-2.4,4.8l0,0
	l-0.5-4c-0.1-0.5,0-0.6,0.3-0.7l0.4-0.1L146.2,117z M155.4,122.1c-0.2,0.2-0.5,0.3-0.7,0.4c-0.1,0-0.1-0.1,0-0.4l0.6-3.1l0,0
	c-0.1,0-0.2,0-0.4-0.1c-0.2,0-0.3-0.1-0.5-0.1c-0.7,0.1-1.3,0.3-1.8,0.8c-0.7,0.7-1,1.6-1,2.5c0,0.8,0.3,1,0.6,1
	c0.3-0.1,0.5-0.3,0.8-0.4c0.5-0.4,0.9-0.9,1.2-1.5l0,0l-0.2,1.2c-0.1,0.4,0.1,0.6,0.2,0.6C154.6,122.8,155,122.5,155.4,122.1
	L155.4,122.1z M153.9,119.2c0.2,0,0.4,0,0.6,0.1c-0.1,0.5-0.2,1.1-0.4,1.6c-0.2,0.4-0.4,0.7-0.7,1c-0.2,0.3-0.6,0.5-0.9,0.7
	c-0.2,0-0.2-0.3-0.2-0.6c0-0.5,0.1-1.1,0.3-1.6c0.1-0.4,0.4-0.8,0.8-1C153.5,119.3,153.7,119.3,153.9,119.2 M156.8,122.9
	c0.1-0.6,0.2-1.2,0.4-1.8c0.3-0.5,1.4-1.7,1.9-1.7c0.3,0,0.2,0.3,0.1,0.8l-0.5,2.2c-0.1,0.5-0.1,0.7,0.1,0.7c0.5-0.2,1-0.5,1.3-0.9
	l-0.1-0.1c-0.2,0.2-0.4,0.3-0.7,0.4c-0.1,0-0.1-0.1,0-0.4l0.5-2.2c0.2-0.9-0.1-1-0.2-1c-0.1,0-0.3,0.1-0.4,0.1
	c-0.7,0.4-1.4,1-1.9,1.6l0,0l0.2-0.9c0.1-0.5,0.1-0.8-0.1-0.8c-0.5,0.2-1,0.6-1.4,1l0.1,0.1c0.2-0.2,0.4-0.4,0.7-0.5
	c0.1,0,0.1,0.2,0,0.6l-0.4,1.5l-0.4,1.5L156.8,122.9z M164.9,122.1c-0.2,0.2-0.5,0.3-0.7,0.4c-0.1,0-0.1-0.1,0-0.4l0.6-3.1l0,0
	c-0.1,0-0.2,0-0.4-0.1c-0.2,0-0.3-0.1-0.5-0.1c-0.7,0.1-1.3,0.3-1.8,0.8c-0.7,0.7-1,1.6-1,2.5c0,0.8,0.3,1,0.6,1
	c0.3-0.1,0.5-0.3,0.8-0.4c0.5-0.4,0.9-0.8,1.3-1.3l0,0l-0.2,1.2c-0.1,0.4,0.1,0.6,0.2,0.6c0.5-0.2,1-0.5,1.4-0.9L164.9,122.1z
	 M163.4,119.3c0.2,0,0.4,0,0.6,0.1c-0.1,0.5-0.2,1.1-0.4,1.6c-0.2,0.4-0.4,0.7-0.7,1c-0.2,0.3-0.6,0.5-0.9,0.7
	c-0.2,0-0.2-0.3-0.2-0.6c0-0.5,0.1-1.1,0.3-1.6c0.1-0.4,0.4-0.8,0.8-1C163.1,119.4,163.3,119.3,163.4,119.3 M166.8,123
	c0.1-0.6,0.2-1.2,0.4-1.8c0.3-0.5,1.4-1.7,1.9-1.7c0.3,0,0.2,0.3,0.1,0.8l-0.5,2.2c-0.1,0.5-0.1,0.7,0.1,0.7c0.5-0.2,1-0.5,1.3-0.9
	l-0.1-0.1c-0.2,0.2-0.4,0.3-0.7,0.4c-0.1,0-0.1-0.1,0-0.4l0.5-2.2c0.2-0.9-0.1-1-0.2-1c-0.2,0-0.3,0-0.4,0.1
	c-0.7,0.4-1.4,0.9-1.9,1.6l0,0l0.2-0.9c0.1-0.5,0.1-0.8-0.1-0.8c-0.5,0.2-1,0.6-1.4,1l0.1,0.1c0.2-0.2,0.4-0.4,0.7-0.5
	c0.1,0,0,0.2,0,0.6l-0.4,1.5l-0.4,1.5L166.8,123z M173.2,120.2c0,0.9-0.6,1.5-1,1.5s-0.6-0.3-0.6-1c0-0.3,0.1-0.7,0.2-1
	c0.1-0.3,0.4-0.4,0.7-0.4C173,119.3,173.2,119.7,173.2,120.2 M171.8,123.2c0.1,0,0.3,0.2,0.6,0.4s0.7,0.5,0.7,0.8
	c0,0.5-0.6,0.7-1.2,0.7s-1.2-0.2-1.2-0.8C170.8,123.9,171.1,123.5,171.8,123.2 M174.6,119c-0.4,0.1-0.8,0.2-1.2,0.2
	c-0.2-0.2-0.4-0.2-0.7-0.2c-0.5,0.1-0.9,0.2-1.2,0.5c-0.4,0.4-0.7,0.9-0.7,1.4c0,0.5,0.4,1,0.9,1.1c-0.4,0.3-0.6,0.4-0.6,0.5
	s0.1,0.3,0.4,0.5c-1,0.5-1.6,1-1.6,1.4c0,0.7,0.8,1,1.5,1s2.1-0.4,2.1-1.3c0-0.3-0.3-0.7-0.9-1.1c-0.4-0.2-0.9-0.5-0.9-0.7
	s0.1-0.2,0.2-0.2c0.4-0.2,0.8-0.4,1.2-0.6c0.4-0.3,0.6-0.8,0.6-1.3c0-0.2,0-0.4-0.1-0.5h0.2c0.3-0.1,0.6-0.2,0.8-0.4L174.6,119z
	 M178.8,122.2c-0.2,0.2-0.5,0.3-0.7,0.4c-0.1,0-0.1-0.1,0-0.4l0.6-3.1l0,0c-0.1,0-0.2,0-0.4-0.1c-0.2,0-0.3-0.1-0.5-0.1
	c-0.7,0.1-1.3,0.3-1.8,0.8c-0.7,0.7-1,1.6-1,2.5c0,0.8,0.3,1,0.6,1c0.3-0.1,0.5-0.3,0.8-0.4c0.5-0.5,0.9-1,1.2-1.6l0,0l-0.2,1.2
	c-0.1,0.4,0.1,0.6,0.2,0.6c0.5-0.2,1-0.5,1.4-0.9L178.8,122.2z M177.3,119.4c0.2,0,0.4,0,0.6,0.1c-0.1,0.5-0.2,1.1-0.4,1.6
	c-0.2,0.4-0.4,0.7-0.7,1c-0.2,0.3-0.5,0.5-0.9,0.7c-0.2,0-0.2-0.3-0.2-0.6c0-0.6,0.1-1.3,0.3-1.8c0.1-0.4,0.4-0.8,0.8-1
	c0.2-0.1,0.4-0.1,0.5-0.1 M184.7,118.8c-0.4,0-0.7,0.1-1,0.3c-0.9,0.6-1.4,1.5-1.3,2.6c0,0.7,0.3,1.4,1.1,1.4c0.5-0.1,1-0.3,1.4-0.6
	c0.6-0.6,1-1.5,1-2.3c0.1-0.6-0.3-1.2-1-1.3C184.8,118.8,184.7,118.8,184.7,118.8 M185.1,120.2c0.1,0.9-0.3,1.9-1,2.5
	c-0.1,0-0.2,0.1-0.3,0.1c-0.6,0-0.8-0.6-0.8-1.3c-0.1-0.9,0.3-1.8,1-2.3c0.1-0.1,0.2-0.1,0.3-0.1
	C184.8,119.1,185.1,119.4,185.1,120.2 M189.7,120.4c-0.1,1.3,0.9,2.5,2.2,2.6c0.1,0,0.2,0,0.3,0c2,0,3.5-1.6,3.5-3.6
	c0,0,0-0.1,0-0.1c0.1-1.4-0.9-2.5-2.3-2.7c-0.1,0-0.2,0-0.3,0C191.2,116.8,189.6,118.4,189.7,120.4
	C189.7,120.4,189.7,120.4,189.7,120.4 M190.5,120.5c0-1.5,0.9-3.6,2.6-3.6c1.3,0,1.8,1.2,1.8,2.4c0,1.5-0.9,3.5-2.5,3.5
	C191.1,122.9,190.6,121.7,190.5,120.5 M197.6,119.3L197,122c-0.1,0.7,0,1,0.2,1c0.4,0,1.2-0.7,1.5-1.1l-0.1-0.1
	c-0.2,0.2-0.7,0.6-0.9,0.6s-0.1-0.2,0-0.7l0.5-2.5h1l0.3-0.2h-1.2l0.3-1.2l-0.1-0.1l-0.7,0.6l-0.2,0.7H197l-0.2,0.2v0.1L197.6,119.3
	z M203.6,122c-0.2,0.2-0.5,0.3-0.7,0.4c-0.1,0-0.1-0.1,0-0.4l0.6-3.1l0,0c-0.1,0-0.2,0-0.4-0.1c-0.2,0-0.3-0.1-0.5-0.1
	c-0.7,0.1-1.3,0.3-1.8,0.8c-0.7,0.7-1,1.6-1,2.5c0,0.8,0.3,1,0.6,1c0.3-0.1,0.5-0.2,0.8-0.4c0.5-0.4,0.9-0.8,1.3-1.3l0,0l-0.2,1.2
	c-0.1,0.4,0.1,0.6,0.2,0.6c0.5-0.2,1-0.5,1.4-0.9L203.6,122z M202.1,119.1c0.2,0,0.4,0,0.6,0.1c-0.1,0.5-0.2,1.1-0.4,1.6
	c-0.2,0.4-0.4,0.7-0.7,1c-0.2,0.3-0.5,0.5-0.9,0.7c-0.2,0-0.2-0.3-0.2-0.6c0-0.5,0.1-1.1,0.3-1.6c0.1-0.4,0.4-0.8,0.8-1
	C201.8,119.2,202,119.2,202.1,119.1 M207.1,120.1c0,0.9-0.6,1.5-1,1.5s-0.6-0.3-0.6-1c0-0.4,0.1-0.7,0.3-1c0.1-0.3,0.4-0.4,0.7-0.4
	C206.9,119.1,207.1,119.5,207.1,120.1 M205.7,123.1l0.6,0.4c0.4,0.3,0.7,0.5,0.7,0.8c0,0.5-0.6,0.7-1.2,0.7s-1.2-0.2-1.2-0.8
	C204.7,123.7,205,123.4,205.7,123.1 M208.5,118.9c-0.4,0.1-0.8,0.2-1.2,0.2c-0.2-0.2-0.4-0.2-0.7-0.2c-0.4,0-0.9,0.2-1.2,0.5
	c-0.4,0.4-0.7,0.9-0.7,1.4c0,0.5,0.4,1,0.9,1.1c-0.4,0.3-0.6,0.4-0.6,0.5s0.1,0.3,0.4,0.5c-1,0.5-1.6,1-1.6,1.4c0,0.7,0.8,1,1.5,1
	s2.1-0.4,2.1-1.3c0-0.3-0.3-0.7-0.9-1.1c-0.4-0.2-0.9-0.5-0.9-0.7s0.1-0.2,0.2-0.2c0.4-0.2,0.8-0.4,1.2-0.6c0.4-0.3,0.6-0.8,0.6-1.3
	c0-0.2,0-0.4-0.1-0.5h0.2c0.3-0.1,0.6-0.2,0.8-0.4L208.5,118.9z M211.1,118.9c-0.4,0-0.7,0.1-1,0.3c-0.9,0.6-1.4,1.5-1.4,2.6
	c0,0.7,0.3,1.4,1.2,1.4c0.5-0.1,1-0.3,1.4-0.6c0.6-0.6,1-1.5,1-2.3c0.1-0.6-0.4-1.2-1-1.3C211.3,118.9,211.2,118.9,211.1,118.9
	 M211.6,120.3c0.1,0.9-0.3,1.9-1,2.5c-0.1,0-0.2,0.1-0.3,0.1c-0.6,0-0.8-0.6-0.8-1.3c-0.1-0.9,0.3-1.8,1-2.3
	c0.1-0.1,0.2-0.1,0.3-0.1C211.3,119.2,211.6,119.6,211.6,120.3"/>
<path d="M152.7,118h2.6v-0.5h-2.6V118z M200.8,118h2.6v-0.5h-2.6V118z"/>
<path class="st1" d="M92.1,120.8v-10.6l-0.5,0.2l-8.3,4.2v11.4H50.8v-10.9l-8.8-4.4v10.6l2.4,1.5l-2.3,3.1H42v8.7h50.1V126H92
	l-2.6-3.5L92.1,120.8z"/>
<path class="st0" d="M91.2,126l-7.2-9.7v9.7L91.2,126z M50.2,126v-9.6L43,126H50.2z"/>
<path class="st0" d="M91.5,134H42.7v-7.3h48.8V134z"/>
<path class="st1" d="M49.3,129.2c-0.2-0.1-0.5-0.2-0.8-0.2c-0.6,0-1,0.3-1,0.8c0,0.8,1.5,0.9,1.5,1.5c0,0.2-0.2,0.4-0.5,0.4
	c-0.4,0-0.7-0.2-0.9-0.4v0.5c0.3,0.2,0.6,0.3,1,0.3c0.5,0.1,0.9-0.3,1-0.7c0,0,0-0.1,0-0.1c0-0.9-1.5-0.9-1.5-1.5
	c0-0.2,0.2-0.4,0.5-0.4c0.3,0,0.6,0.1,0.8,0.3L49.3,129.2z"/>
<path class="st1" d="M52.1,129h-0.3l-1.5,3h0.5l0.4-0.9h1.5l0.5,0.9h0.5L52.1,129z M52,129.7l0.5,1.1h-1.1L52,129.7z"/>
<path class="st1" d="M54.7,129v3h0.5v-1.3h0.5c0.8,0,1.1-0.4,1.1-0.8s-0.3-0.9-1.1-0.9L54.7,129z M55.2,129.4h0.6
	c0.5,0,0.6,0.2,0.6,0.5s-0.2,0.5-0.6,0.5h-0.6L55.2,129.4z"/>
<path id="M" class="st1" d="M59.9,129H58v3h2v-0.4h-1.5v-0.9h1.4v-0.4h-1.4v-0.9h1.5L59.9,129z"/>
<path class="st1" d="M61.2,129v3h0.5v-1.3h0.2c0.2,0,0.5,0.1,0.9,0.7l0.5,0.6h0.6l-0.5-0.6c-0.2-0.3-0.4-0.6-0.8-0.8
	c0.3-0.1,0.6-0.4,0.6-0.7c0-0.5-0.4-0.8-1.1-0.8L61.2,129z M61.7,129.4H62c0.5,0,0.7,0.2,0.7,0.4s-0.1,0.5-0.7,0.5h-0.3L61.7,129.4z
	"/>
<path id="M-2" class="st1" d="M66.8,129h-1.9v3h2v-0.4h-1.5v-0.9h1.4v-0.4h-1.4v-0.9h1.4L66.8,129z"/>
<path class="st1" d="M73.2,129h-0.3l-1.5,3h0.5l0.4-0.9h1.4l0.5,0.9h0.5L73.2,129z M73.1,129.7l0.6,1.1h-1.1L73.1,129.7z"/>
<path class="st1" d="M78.6,129h-0.5v1.7c0,0.2,0,0.5-0.2,0.7c-0.2,0.2-0.5,0.3-0.8,0.2c-0.3,0-0.5-0.1-0.7-0.2
	c-0.2-0.1-0.2-0.3-0.2-0.6v-1.7h-0.5v1.9c0,0.8,0.7,1.2,1.4,1.2c1,0,1.5-0.5,1.5-1.2L78.6,129z M80,132h1.3c0.9,0.1,1.7-0.5,1.8-1.4
	c0,0,0,0,0-0.1c0-0.7-0.6-1.5-1.8-1.5H80L80,132z M80.5,129.4h0.8c1,0,1.4,0.5,1.4,1.1c0,0.4-0.3,1.1-1.4,1.1h-0.8L80.5,129.4z"/>
<path id="M-3" class="st1" d="M86.4,129h-1.9v3h2v-0.4h-1.5v-0.9h1.4v-0.4h-1.4v-0.9h1.4V129z"/>
<path class="st0" d="M89.1,122l2.4-1.5v-9.2L84,115v0.1L89.1,122z M50,115.5l-7.3-3.7v9.2l2.1,1.3L50,115.5z"/>
<path class="st1" d="M91.9,61.8H42.3v33.2c0,15.2,23.6,27.3,24.6,27.8l0.2,0.1l0.2-0.1c1-0.5,25.1-13,25.1-28.9V61.8H91.9z"/>
<path class="st2" d="M88.1,104.4L74.6,89.1l17-19v-7.6h-8L67.1,80.8L50.9,62.5H43v7.8l16.7,18.9L46,104.5c2.1,3.1,4.5,5.9,7.4,8.3
	l13.8-15.3l13.5,15.2C83.5,110.3,86,107.5,88.1,104.4"/>
<path class="st1" d="M74.5,82.1l-2.2-2.2H60.1v14.8l1.9,1.8v2h2.6V97h9.9L74.5,82.1z"/>
<path class="st2" d="M61.1,94.8H62v0.8L61.1,94.8 M73.8,96.3h-9.3v-1.5h7.8V80.9l1.5,1.5L73.8,96.3"/>
<path class="st3" d="M62.6,98h1.2v-3h-1.2V98z"/>
<path id="N" class="st1" d="M66.8,64.5l-1.3,2.3h-3.2l1.6,2.8l-1.6,2.8h3.2l1.6,2.8l1.6-2.8H72l-1.6-2.8l1.6-2.8h-3.3L67.1,64
	L66.8,64.5z"/>
<path class="st2" d="M66,67.3l1.1-2l1.2,2.2h2.5l-1.3,2.1l1.2,2.2h-2.5l-1.2,2.2l-1.2-2.2h-2.5l1.3-2.1l-1.3-2.2h2.5L66,67.3z"/>
<path class="st1" d="M66.8,105.3l-1.3,2.3h-3.2l1.6,2.8l-1.6,2.9h3.2l1.6,2.8l1.6-2.8H72l-1.6-2.8l1.6-2.9h-3.3l-1.6-2.8L66.8,105.3
	z"/>
<path class="st2" d="M66,108.1l1.1-2l1.2,2.2h2.5l-1.3,2.1l1.2,2.1h-2.5l-1.2,2.2l-1.2-2.2h-2.5l1.3-2.1l-1.3-2.1h2.5L66,108.1z"/>
<path class="st1" d="M49.6,83.5l-1.3,2.3H45l1.6,2.8L45,91.4h3.2l1.6,2.9l1.6-2.8h3.2l-1.6-2.8l1.7-2.8h-3.3L49.8,83L49.6,83.5z"/>
<path id="O" class="st2" d="M48.7,86.3l1.1-2l1.2,2.2h2.5l-1.3,2.1l1.2,2.2h-2.5l-1.2,2.2l-1.2-2.2h-2.5l1.2-2.2l-1.2-2.1h2.5
	L48.7,86.3z"/>
<path class="st1" d="M84.2,83.5l-1.3,2.3h-3.2l1.6,2.8l-1.6,2.8h3.2l1.6,2.8l1.6-2.8h3.2l-1.6-2.8l1.7-2.8h-3.3L84.4,83L84.2,83.5z"
	/>
<path class="st2" d="M83.3,86.3l1.1-2l1.2,2.2h2.5l-1.3,2.1l1.2,2.2h-2.5l-1.2,2.2l-1.2-2.2h-2.5l1.3-2.1l-1.2-2.1h2.5L83.3,86.3z"
	/>
<path class="st3" d="M71.6,94.1H60.8V80.7h10.9V94.1z"/>
<path class="st1" d="M66,82.7L64.7,85h-3.3l1.6,2.8l-1.6,2.8h3.2l1.6,2.8l1.6-2.8h3.3l-1.6-2.8l1.7-2.8h-3.3l-1.6-2.8L66,82.7z"/>
<path class="st2" d="M65.1,85.5l1.1-2l1.2,2.2H70l-1.3,2.2l1.3,2.1h-2.5l-1.2,2.2L65,89.9h-2.5l1.2-2.1l-1.2-2.1H65L65.1,85.5z"/>
<path d="M109.9,129.2c-0.5,0-0.7,0.1-0.7,0.5c0,0.5,0,0.9,0,1.4v3.4h-0.3l-3.6-4.4l0,0v2.1v1.4c0,0.4,0.2,0.5,0.8,0.6v0.2h-2v-0.2
	c0.5,0,0.7-0.1,0.7-0.6c0-0.5,0.1-1,0.1-1.4v-1.9c0-0.6,0-0.6-0.2-0.9c-0.2-0.2-0.5-0.3-0.8-0.3v-0.2h1.2l3.5,4.2l0,0v-2l-0.1-1.4
	c0-0.4-0.2-0.5-0.8-0.5V129h2L109.9,129.2z M119.6,133.1l-0.3,1.3h-4.1v-0.2c0.8-0.1,0.8-0.1,0.8-0.8V130c0-0.8-0.1-0.8-0.7-0.9
	v-0.2h3.8c0,0.2,0,0.8,0.1,1.2h-0.2c0-0.3-0.1-0.5-0.3-0.7c-0.1-0.2-0.3-0.2-1-0.2H117c-0.3,0-0.3,0-0.3,0.3v1.9h0.8
	c0.8,0,0.8-0.1,0.9-0.6h0.2v1.6h-0.2c-0.1-0.6-0.2-0.7-0.9-0.7h-0.8v1.6c0,0.4,0,0.6,0.2,0.7c0.3,0.1,0.6,0.1,0.9,0.1
	c0.6,0,0.9-0.1,1.1-0.3c0.2-0.2,0.3-0.5,0.4-0.8L119.6,133.1z M132.6,129.2c-0.6,0.1-0.7,0.1-0.9,0.8l-1.4,4.5H130l-1.4-4.2l0,0
	l-1.4,4.2H127l-1.4-4.5c-0.2-0.7-0.3-0.8-0.8-0.8v-0.2h2.1v0.2c-0.6,0.1-0.6,0.1-0.5,0.6l1,3.5l0,0l1.4-4.2h0.2l1.5,4.2l0,0l1-3.4
	c0.1-0.5,0.1-0.6-0.6-0.7v-0.2h1.9L132.6,129.2z M149.4,133l-0.3,1.4h-4.3l-0.1-0.1l3.5-5h-1.5c-0.9,0-1,0.1-1.2,0.3
	c-0.1,0.2-0.2,0.5-0.3,0.7h-0.2l0.1-1.6h0.2c0.1,0.2,0.2,0.2,0.4,0.2h3.4l0.1,0.1l-3.5,5c0.3,0,0.8,0,1.4,0c1.1,0,1.4-0.1,1.6-0.3
	c0.2-0.3,0.4-0.6,0.4-0.9L149.4,133z M159,133.1l-0.3,1.3h-4.1v-0.2c0.8-0.1,0.8-0.1,0.8-0.8V130c0-0.8-0.1-0.8-0.7-0.9v-0.2h3.8
	c0,0.2,0,0.8,0.1,1.2h-0.2c0-0.3-0.1-0.5-0.3-0.7c-0.1-0.2-0.4-0.2-1-0.2h-0.6c-0.3,0-0.3,0-0.3,0.3v1.9h0.8c0.8,0,0.8-0.1,0.9-0.6
	h0.2v1.6H158c-0.1-0.6-0.2-0.7-0.9-0.7h-0.8v1.6c0,0.4,0,0.6,0.2,0.7c0.3,0.1,0.6,0.1,0.9,0.1c0.6,0,0.9-0.1,1.1-0.3
	c0.2-0.2,0.3-0.5,0.4-0.8L159,133.1z"/>
<path id="P" d="M167.8,134.4v-0.2c0.5-0.1,0.6-0.1,0.5-0.5l-0.5-1.3H166l-0.4,1.1c-0.2,0.5-0.1,0.6,0.5,0.7v0.2h-1.8v-0.2
	c0.5-0.1,0.6-0.1,1-0.9l1.7-4.4l0.3-0.1l1.6,4.5c0.3,0.7,0.4,0.8,0.9,0.9v0.2L167.8,134.4z M166.9,129.9L166.9,129.9l-0.8,2.1h1.6
	L166.9,129.9z"/>
<path d="M179.3,133.1l-0.3,1.3h-3.8v-0.2c0.7-0.1,0.8-0.1,0.8-0.8V130c0-0.7,0-0.8-0.7-0.8v-0.2h2.2v0.2c-0.7,0.1-0.8,0.1-0.8,0.8
	v3.3c0,0.5,0,0.6,0.2,0.7c0.3,0.1,0.5,0.1,0.8,0.1c0.5,0,0.8,0,0.9-0.3c0.2-0.2,0.3-0.5,0.4-0.8L179.3,133.1z M188,134.4v-0.2
	c0.5-0.1,0.6-0.1,0.5-0.5l-0.5-1.3h-1.8l-0.4,1.1c-0.2,0.5-0.1,0.6,0.5,0.7v0.2h-1.8v-0.2c0.5-0.1,0.6-0.1,0.9-0.9l1.8-4.4l0.3-0.1
	l1.6,4.5c0.3,0.7,0.4,0.8,0.9,0.9v0.2L188,134.4z M187.2,129.9L187.2,129.9l-0.8,2.1h1.6L187.2,129.9z M201.2,129.2
	c-0.5,0-0.7,0.1-0.7,0.5c0,0.5-0.1,0.9-0.1,1.4v3.4h-0.3l-3.6-4.4l0,0v2.1l0.1,1.4c0,0.4,0.2,0.5,0.8,0.6v0.2h-2v-0.2
	c0.5,0,0.7-0.1,0.8-0.6c0-0.3,0-0.7,0-1.4v-1.9c0-0.6,0-0.6-0.2-0.9c-0.2-0.2-0.5-0.3-0.8-0.3v-0.2h1.2l3.5,4.2l0,0v-2l-0.1-1.4
	c0-0.4-0.2-0.5-0.8-0.5V129h2L201.2,129.2z M209,128.9c0.9-0.1,1.7,0.2,2.4,0.7c0.5,0.5,0.7,1.1,0.7,1.8c0.1,0.9-0.3,1.7-1,2.2
	c-0.7,0.5-1.6,0.8-2.5,0.7h-2v-0.2c0.7-0.1,0.8-0.1,0.8-0.8V130c0-0.7-0.1-0.8-0.7-0.8v-0.2H209z M208.1,133.3
	c0,0.6,0.3,0.8,0.9,0.8c1.4-0.1,2.4-1.4,2.3-2.8c-0.1-0.7-0.4-1.4-1-1.8c-0.4-0.2-0.9-0.4-1.4-0.3c-0.2,0-0.5,0-0.7,0.1
	c-0.1,0.1-0.1,0.1-0.1,0.5L208.1,133.3z"/>
</svg>
